<?xml version="1.0" encoding="UTF-8"?>
<!DOCTYPE svg PUBLIC "-//W3C//DTD SVG 1.1//EN" "http://www.w3.org/Graphics/SVG/1.1/DTD/svg11.dtd">
<svg xmlns="http://www.w3.org/2000/svg" version="1.1" width="1600px" height="900px" style="shape-rendering:geometricPrecision; text-rendering:geometricPrecision; image-rendering:optimizeQuality; fill-rule:evenodd; clip-rule:evenodd" xmlns:xlink="http://www.w3.org/1999/xlink">
<g><path style="opacity:0.481" fill="#cb1f24" d="M 791.5,19.5 C 786.433,20.1882 781.267,20.8549 776,21.5C 775.601,21.2716 775.435,20.9382 775.5,20.5C 780.64,19.5119 785.974,19.1786 791.5,19.5 Z"/></g>
<g><path style="opacity:0.999" fill="#cb1f25" d="M 791.5,19.5 C 799.167,19.5 806.833,19.5 814.5,19.5C 818.899,20.1913 823.399,20.858 828,21.5C 828.399,21.2716 828.565,20.9382 828.5,20.5C 832.042,20.1872 835.375,20.5206 838.5,21.5C 847.667,22.9817 857,24.3151 866.5,25.5C 868.03,25.6399 869.03,26.3065 869.5,27.5C 869.5,28.1667 869.167,28.5 868.5,28.5C 867.094,28.9731 866.427,29.9731 866.5,31.5C 866.5,32.1667 866.167,32.5 865.5,32.5C 864.094,32.9731 863.427,33.9731 863.5,35.5C 863.5,36.1667 863.167,36.5 862.5,36.5C 861.094,36.9731 860.427,37.9731 860.5,39.5C 859.299,41.9095 857.633,43.9095 855.5,45.5C 854.094,45.9731 853.427,46.9731 853.5,48.5C 853.5,49.1667 853.167,49.5 852.5,49.5C 851.094,49.9731 850.427,50.9731 850.5,52.5C 848.738,53.2623 847.738,54.5956 847.5,56.5C 845.738,57.2623 844.738,58.5956 844.5,60.5C 842.183,64.1464 839.516,67.4797 836.5,70.5C 813.89,71.196 791.224,72.0294 768.5,73C 753.124,74.0743 738.124,76.5743 723.5,80.5C 717.062,82.6592 710.396,84.3258 703.5,85.5C 695.196,87.5682 687.196,90.2349 679.5,93.5C 678.791,94.404 677.791,94.7373 676.5,94.5C 674.447,94.4021 672.78,95.0687 671.5,96.5C 666.992,98.676 662.325,100.676 657.5,102.5C 653.418,103.376 649.751,105.043 646.5,107.5C 641.914,108.46 637.914,110.46 634.5,113.5C 631.001,115.75 627.335,117.75 623.5,119.5C 621.973,119.427 620.973,120.094 620.5,121.5C 620.158,122.338 619.492,122.672 618.5,122.5C 616.326,122.75 614.659,123.75 613.5,125.5C 611.973,125.427 610.973,126.094 610.5,127.5C 608.326,127.75 606.659,128.75 605.5,130.5C 602.554,133.313 599.221,135.646 595.5,137.5C 593.973,137.427 592.973,138.094 592.5,139.5C 590.596,139.738 589.262,140.738 588.5,142.5C 586.973,142.427 585.973,143.094 585.5,144.5C 585.5,145.167 585.167,145.5 584.5,145.5C 582.973,145.427 581.973,146.094 581.5,147.5C 581.5,148.167 581.167,148.5 580.5,148.5C 578.973,148.427 577.973,149.094 577.5,150.5C 576.833,151.833 575.833,152.833 574.5,153.5C 572.596,153.738 571.262,154.738 570.5,156.5C 570.167,157.5 569.5,158.167 568.5,158.5C 566.596,158.738 565.262,159.738 564.5,161.5C 563.5,163.167 562.167,164.5 560.5,165.5C 555.895,168.436 551.895,172.102 548.5,176.5C 547.833,177.833 546.833,178.833 545.5,179.5C 542.427,181.569 540.094,184.236 538.5,187.5C 537.833,188.833 536.833,189.833 535.5,190.5C 533.413,191.585 532.08,193.251 531.5,195.5C 530.833,196.833 529.833,197.833 528.5,198.5C 526.738,199.262 525.738,200.596 525.5,202.5C 525.167,203.5 524.5,204.167 523.5,204.5C 522.094,204.973 521.427,205.973 521.5,207.5C 519.738,208.262 518.738,209.596 518.5,211.5C 518.5,212.167 518.167,212.5 517.5,212.5C 516.094,212.973 515.427,213.973 515.5,215.5C 514.396,217.389 513.063,219.055 511.5,220.5C 510.094,220.973 509.427,221.973 509.5,223.5C 508.094,223.973 507.427,224.973 507.5,226.5C 506.094,226.973 505.427,227.973 505.5,229.5C 504.094,229.973 503.427,230.973 503.5,232.5C 501.75,233.659 500.75,235.326 500.5,237.5C 498.07,242.037 495.403,246.37 492.5,250.5C 490.412,252.336 489.079,254.669 488.5,257.5C 485.008,265.818 481.008,273.818 476.5,281.5C 475.069,282.78 474.402,284.447 474.5,286.5C 472.206,289.37 470.872,292.703 470.5,296.5C 468.733,298.792 467.733,301.458 467.5,304.5C 466.069,305.78 465.402,307.447 465.5,309.5C 463.87,316.051 461.87,322.384 459.5,328.5C 458.076,330.515 457.41,332.848 457.5,335.5C 452.685,351.376 449.685,367.71 448.5,384.5C 445.853,410.165 445.853,435.832 448.5,461.5C 449.695,480.019 453.029,498.019 458.5,515.5C 461.001,523.012 463.335,530.679 465.5,538.5C 465.733,541.542 466.733,544.208 468.5,546.5C 468.733,549.542 469.733,552.208 471.5,554.5C 471.402,556.553 472.069,558.22 473.5,559.5C 473.402,561.553 474.069,563.22 475.5,564.5C 480.07,573.309 484.403,582.309 488.5,591.5C 489.079,594.331 490.412,596.664 492.5,598.5C 495.335,602.164 497.668,606.164 499.5,610.5C 499.427,612.027 500.094,613.027 501.5,613.5C 501.427,615.027 502.094,616.027 503.5,616.5C 503.427,618.027 504.094,619.027 505.5,619.5C 506.89,620.899 507.89,622.566 508.5,624.5C 508.427,626.027 509.094,627.027 510.5,627.5C 512.063,628.945 513.396,630.611 514.5,632.5C 514.427,634.027 515.094,635.027 516.5,635.5C 516.738,637.404 517.738,638.738 519.5,639.5C 520.167,639.5 520.5,639.833 520.5,640.5C 520.427,642.027 521.094,643.027 522.5,643.5C 523.167,643.5 523.5,643.833 523.5,644.5C 523.738,646.404 524.738,647.738 526.5,648.5C 527.5,648.833 528.167,649.5 528.5,650.5C 528.427,652.027 529.094,653.027 530.5,653.5C 532.167,654.5 533.5,655.833 534.5,657.5C 535.08,659.749 536.413,661.415 538.5,662.5C 540.167,663.5 541.5,664.833 542.5,666.5C 542.5,668.5 543.5,669.5 545.5,669.5C 549.167,675.167 553.833,679.833 559.5,683.5C 561.5,684.833 563.167,686.5 564.5,688.5C 565.585,690.587 567.251,691.92 569.5,692.5C 570.833,693.167 571.833,694.167 572.5,695.5C 573.585,697.587 575.251,698.92 577.5,699.5C 578.167,699.5 578.5,699.833 578.5,700.5C 579.262,702.262 580.596,703.262 582.5,703.5C 583.262,705.262 584.596,706.262 586.5,706.5C 587.167,706.5 587.5,706.833 587.5,707.5C 587.973,708.906 588.973,709.573 590.5,709.5C 591.167,709.5 591.5,709.833 591.5,710.5C 591.973,711.906 592.973,712.573 594.5,712.5C 595.167,712.5 595.5,712.833 595.5,713.5C 595.973,714.906 596.973,715.573 598.5,715.5C 598.973,716.906 599.973,717.573 601.5,717.5C 602.802,719.822 604.802,721.155 607.5,721.5C 607.973,722.906 608.973,723.573 610.5,723.5C 611.659,725.25 613.326,726.25 615.5,726.5C 618.54,727.68 621.206,729.347 623.5,731.5C 624.659,733.25 626.326,734.25 628.5,734.5C 629.492,734.328 630.158,734.662 630.5,735.5C 635.684,739.26 641.35,742.26 647.5,744.5C 652.25,745.743 656.584,747.743 660.5,750.5C 669.714,755.13 679.38,758.797 689.5,761.5C 693.784,762.261 697.784,763.595 701.5,765.5C 703.515,766.924 705.848,767.59 708.5,767.5C 730.906,774.18 753.906,778.18 777.5,779.5C 778.5,778.167 779.5,778.167 780.5,779.5C 787.648,780.492 794.981,780.825 802.5,780.5C 811.387,779.938 820.22,779.272 829,778.5C 829.383,779.056 829.883,779.389 830.5,779.5C 853.054,778.408 875.054,774.741 896.5,768.5C 899.152,768.59 901.485,767.924 903.5,766.5C 907.617,764.796 911.951,763.463 916.5,762.5C 928.366,759.326 939.699,754.993 950.5,749.5C 954.182,746.992 958.182,744.992 962.5,743.5C 964.38,743.771 965.713,743.104 966.5,741.5C 969.515,739.326 972.849,737.659 976.5,736.5C 979.331,735.921 981.664,734.588 983.5,732.5C 983.842,731.662 984.508,731.328 985.5,731.5C 987.027,731.573 988.027,730.906 988.5,729.5C 989.899,728.11 991.566,727.11 993.5,726.5C 995.027,726.573 996.027,725.906 996.5,724.5C 998.027,724.573 999.027,723.906 999.5,722.5C 1001.03,722.573 1002.03,721.906 1002.5,720.5C 1004.03,720.573 1005.03,719.906 1005.5,718.5C 1007.03,718.573 1008.03,717.906 1008.5,716.5C 1010.03,716.573 1011.03,715.906 1011.5,714.5C 1012.44,713.026 1013.77,712.026 1015.5,711.5C 1017.03,711.573 1018.03,710.906 1018.5,709.5C 1018.5,708.833 1018.83,708.5 1019.5,708.5C 1021.4,708.262 1022.74,707.262 1023.5,705.5C 1025.4,705.262 1026.74,704.262 1027.5,702.5C 1027.5,701.833 1027.83,701.5 1028.5,701.5C 1030.4,701.262 1031.74,700.262 1032.5,698.5C 1032.5,697.833 1032.83,697.5 1033.5,697.5C 1035.4,697.262 1036.74,696.262 1037.5,694.5C 1038.5,692.833 1039.83,691.5 1041.5,690.5C 1044.43,689.243 1046.76,687.243 1048.5,684.5C 1054.83,677.5 1061.5,670.833 1068.5,664.5C 1070.59,663.415 1071.92,661.749 1072.5,659.5C 1072.83,658.5 1073.5,657.833 1074.5,657.5C 1076.59,656.415 1077.92,654.749 1078.5,652.5C 1078.5,651.833 1078.83,651.5 1079.5,651.5C 1081.26,650.738 1082.26,649.404 1082.5,647.5C 1084.27,644.94 1086.27,642.607 1088.5,640.5C 1089.91,640.027 1090.57,639.027 1090.5,637.5C 1090.5,636.833 1090.83,636.5 1091.5,636.5C 1092.91,636.027 1093.57,635.027 1093.5,633.5C 1094.91,633.027 1095.57,632.027 1095.5,630.5C 1097.26,629.738 1098.26,628.404 1098.5,626.5C 1099.91,626.027 1100.57,625.027 1100.5,623.5C 1102.27,620.291 1104.27,617.291 1106.5,614.5C 1107.91,614.027 1108.57,613.027 1108.5,611.5C 1108.33,610.508 1108.66,609.842 1109.5,609.5C 1110.91,609.027 1111.57,608.027 1111.5,606.5C 1111.33,605.508 1111.66,604.842 1112.5,604.5C 1113.91,604.027 1114.57,603.027 1114.5,601.5C 1118.92,592.335 1123.58,583.335 1128.5,574.5C 1130.29,572.574 1131.29,570.241 1131.5,567.5C 1133.01,565.819 1134.01,563.819 1134.5,561.5C 1135.98,555.891 1137.98,550.557 1140.5,545.5C 1145.05,535.312 1148.39,524.645 1150.5,513.5C 1152.5,504.474 1154.5,495.474 1156.5,486.5C 1160.91,466.213 1162.91,445.547 1162.5,424.5C 1162.86,405.175 1161.2,386.175 1157.5,367.5C 1155.27,358.003 1153.27,348.336 1151.5,338.5C 1149.74,330.558 1147.41,322.891 1144.5,315.5C 1142.93,312.785 1141.93,309.785 1141.5,306.5C 1141.6,304.447 1140.93,302.78 1139.5,301.5C 1137.13,296.723 1135.13,291.723 1133.5,286.5C 1133.01,284.181 1132.01,282.181 1130.5,280.5C 1129.62,276.418 1127.96,272.751 1125.5,269.5C 1122.58,264.667 1119.92,259.667 1117.5,254.5C 1117.57,252.973 1116.91,251.973 1115.5,251.5C 1114.92,248.669 1113.59,246.336 1111.5,244.5C 1110.66,244.158 1110.33,243.492 1110.5,242.5C 1110.57,240.973 1109.91,239.973 1108.5,239.5C 1105.47,235.795 1102.81,231.795 1100.5,227.5C 1100.57,225.973 1099.91,224.973 1098.5,224.5C 1097.83,224.5 1097.5,224.167 1097.5,223.5C 1097.57,221.973 1096.91,220.973 1095.5,220.5C 1095.57,218.973 1094.91,217.973 1093.5,217.5C 1092.83,217.5 1092.5,217.167 1092.5,216.5C 1092.57,214.973 1091.91,213.973 1090.5,213.5C 1089.83,213.5 1089.5,213.167 1089.5,212.5C 1089.57,210.973 1088.91,209.973 1087.5,209.5C 1086.5,209.167 1085.83,208.5 1085.5,207.5C 1085.57,205.973 1084.91,204.973 1083.5,204.5C 1082.17,203.833 1081.17,202.833 1080.5,201.5C 1079.92,199.251 1078.59,197.585 1076.5,196.5C 1075.58,193.911 1073.91,191.911 1071.5,190.5C 1067.83,187.5 1064.5,184.167 1061.5,180.5C 1060.5,177.5 1058.5,175.5 1055.5,174.5C 1052.5,172.167 1049.83,169.5 1047.5,166.5C 1046.42,164.413 1044.75,163.08 1042.5,162.5C 1041.83,162.5 1041.5,162.167 1041.5,161.5C 1040.09,159.086 1038.09,157.419 1035.5,156.5C 1034.5,156.167 1033.83,155.5 1033.5,154.5C 1033.03,153.094 1032.03,152.427 1030.5,152.5C 1029.5,152.167 1028.83,151.5 1028.5,150.5C 1028.03,149.094 1027.03,148.427 1025.5,148.5C 1024.83,148.5 1024.5,148.167 1024.5,147.5C 1024.03,146.094 1023.03,145.427 1021.5,145.5C 1020.74,143.738 1019.4,142.738 1017.5,142.5C 1017.03,141.094 1016.03,140.427 1014.5,140.5C 1013.74,138.738 1012.4,137.738 1010.5,137.5C 1007.29,135.735 1004.29,133.735 1001.5,131.5C 1001.03,130.094 1000.03,129.427 998.5,129.5C 997.341,127.75 995.674,126.75 993.5,126.5C 992.341,124.75 990.674,123.75 988.5,123.5C 987.508,123.672 986.842,123.338 986.5,122.5C 986.027,121.094 985.027,120.427 983.5,120.5C 980.55,119.692 977.883,118.358 975.5,116.5C 975.027,115.094 974.027,114.427 972.5,114.5C 970.847,114.34 969.514,113.674 968.5,112.5C 965.249,110.043 961.582,108.376 957.5,107.5C 954.912,105.375 951.912,104.042 948.5,103.5C 943.501,101.918 938.668,99.9179 934,97.5C 931.514,88.2247 929.348,78.8913 927.5,69.5C 925.758,60.4588 923.758,51.4588 921.5,42.5C 921.833,41.8333 922.167,41.1667 922.5,40.5C 925.399,41.6416 928.399,42.3083 931.5,42.5C 938.216,45.4054 945.216,47.7387 952.5,49.5C 958.78,51.3138 964.78,53.6472 970.5,56.5C 972.426,58.2927 974.759,59.2927 977.5,59.5C 979.426,61.2927 981.759,62.2927 984.5,62.5C 985.492,62.3284 986.158,62.6618 986.5,63.5C 988.181,65.0075 990.181,66.0075 992.5,66.5C 998.818,68.9922 1004.82,71.9922 1010.5,75.5C 1012.34,77.588 1014.67,78.9213 1017.5,79.5C 1018.49,79.3284 1019.16,79.6618 1019.5,80.5C 1019.97,81.9063 1020.97,82.573 1022.5,82.5C 1027.34,84.4176 1031.68,87.0843 1035.5,90.5C 1036.66,92.2503 1038.33,93.2503 1040.5,93.5C 1040.97,94.9063 1041.97,95.573 1043.5,95.5C 1043.97,96.9063 1044.97,97.573 1046.5,97.5C 1046.97,98.9063 1047.97,99.573 1049.5,99.5C 1050.17,99.5 1050.5,99.8333 1050.5,100.5C 1050.97,101.906 1051.97,102.573 1053.5,102.5C 1055.75,103.124 1057.42,104.457 1058.5,106.5C 1058.97,107.906 1059.97,108.573 1061.5,108.5C 1062.17,108.5 1062.5,108.833 1062.5,109.5C 1062.97,110.906 1063.97,111.573 1065.5,111.5C 1066.17,111.5 1066.5,111.833 1066.5,112.5C 1066.97,113.906 1067.97,114.573 1069.5,114.5C 1070.17,114.5 1070.5,114.833 1070.5,115.5C 1071.26,117.262 1072.6,118.262 1074.5,118.5C 1078.11,120.472 1081.11,123.139 1083.5,126.5C 1084.58,128.587 1086.25,129.92 1088.5,130.5C 1091.17,132.5 1093.5,134.833 1095.5,137.5C 1096.91,139.914 1098.91,141.581 1101.5,142.5C 1103.17,143.5 1104.5,144.833 1105.5,146.5C 1106.5,149.5 1108.5,151.5 1111.5,152.5C 1111.74,154.404 1112.74,155.738 1114.5,156.5C 1117.5,158.833 1120.17,161.5 1122.5,164.5C 1123.08,166.749 1124.41,168.415 1126.5,169.5C 1127.5,169.833 1128.17,170.5 1128.5,171.5C 1128.43,173.027 1129.09,174.027 1130.5,174.5C 1131.83,175.167 1132.83,176.167 1133.5,177.5C 1133.43,179.027 1134.09,180.027 1135.5,180.5C 1136.83,181.167 1137.83,182.167 1138.5,183.5C 1138.43,185.027 1139.09,186.027 1140.5,186.5C 1141.17,186.5 1141.5,186.833 1141.5,187.5C 1141.43,189.027 1142.09,190.027 1143.5,190.5C 1144.17,190.5 1144.5,190.833 1144.5,191.5C 1144.43,193.027 1145.09,194.027 1146.5,194.5C 1148.85,196.86 1150.85,199.527 1152.5,202.5C 1152.43,204.027 1153.09,205.027 1154.5,205.5C 1154.43,207.027 1155.09,208.027 1156.5,208.5C 1156.43,210.027 1157.09,211.027 1158.5,211.5C 1158.43,213.027 1159.09,214.027 1160.5,214.5C 1160.43,216.027 1161.09,217.027 1162.5,217.5C 1165.4,221.63 1168.07,225.963 1170.5,230.5C 1170.75,232.674 1171.75,234.341 1173.5,235.5C 1174.34,235.842 1174.67,236.508 1174.5,237.5C 1175.41,240.992 1177.08,243.992 1179.5,246.5C 1184.01,254.182 1188.01,262.182 1191.5,270.5C 1191.4,272.553 1192.07,274.22 1193.5,275.5C 1193.71,278.241 1194.71,280.574 1196.5,282.5C 1196.4,284.553 1197.07,286.22 1198.5,287.5C 1201.35,293.21 1203.68,299.21 1205.5,305.5C 1205.93,308.785 1206.93,311.785 1208.5,314.5C 1209.59,320.433 1211.26,326.1 1213.5,331.5C 1213.74,335.479 1214.74,339.146 1216.5,342.5C 1219.12,351.583 1221.12,360.917 1222.5,370.5C 1225.18,390.94 1227.51,411.274 1229.5,431.5C 1229.5,440.167 1229.5,448.833 1229.5,457.5C 1227.48,478.387 1225.14,499.387 1222.5,520.5C 1221.04,531.147 1218.71,541.481 1215.5,551.5C 1213.96,553.838 1213.29,556.505 1213.5,559.5C 1210.9,565.891 1208.9,572.557 1207.5,579.5C 1205.02,587.776 1202.02,595.776 1198.5,603.5C 1197.07,604.78 1196.4,606.447 1196.5,608.5C 1195.07,609.78 1194.4,611.447 1194.5,613.5C 1194.67,614.492 1194.34,615.158 1193.5,615.5C 1192.07,616.78 1191.4,618.447 1191.5,620.5C 1187.34,630.151 1182.67,639.484 1177.5,648.5C 1175.41,650.336 1174.08,652.669 1173.5,655.5C 1173.67,656.492 1173.34,657.158 1172.5,657.5C 1171.09,657.973 1170.43,658.973 1170.5,660.5C 1169,664.173 1167,667.506 1164.5,670.5C 1163.09,670.973 1162.43,671.973 1162.5,673.5C 1161.89,675.434 1160.89,677.101 1159.5,678.5C 1158.09,678.973 1157.43,679.973 1157.5,681.5C 1156.09,681.973 1155.43,682.973 1155.5,684.5C 1154.09,684.973 1153.43,685.973 1153.5,687.5C 1151.85,690.473 1149.85,693.14 1147.5,695.5C 1146.09,695.973 1145.43,696.973 1145.5,698.5C 1145.5,699.167 1145.17,699.5 1144.5,699.5C 1143.09,699.973 1142.43,700.973 1142.5,702.5C 1142.5,703.167 1142.17,703.5 1141.5,703.5C 1140.09,703.973 1139.43,704.973 1139.5,706.5C 1139.5,707.167 1139.17,707.5 1138.5,707.5C 1136.74,708.262 1135.74,709.596 1135.5,711.5C 1135.17,712.5 1134.5,713.167 1133.5,713.5C 1132.09,713.973 1131.43,714.973 1131.5,716.5C 1130.83,717.833 1129.83,718.833 1128.5,719.5C 1126.74,720.262 1125.74,721.596 1125.5,723.5C 1125.17,724.5 1124.5,725.167 1123.5,725.5C 1121.09,726.911 1119.42,728.911 1118.5,731.5C 1115.5,735.167 1112.17,738.5 1108.5,741.5C 1105.17,744.167 1102.17,747.167 1099.5,750.5C 1097.17,753.5 1094.5,756.167 1091.5,758.5C 1088.57,759.757 1086.24,761.757 1084.5,764.5C 1084.17,765.5 1083.5,766.167 1082.5,766.5C 1080.6,766.738 1079.26,767.738 1078.5,769.5C 1077.83,770.833 1076.83,771.833 1075.5,772.5C 1073.97,772.427 1072.97,773.094 1072.5,774.5C 1072.17,775.5 1071.5,776.167 1070.5,776.5C 1068.97,776.427 1067.97,777.094 1067.5,778.5C 1067.17,779.5 1066.5,780.167 1065.5,780.5C 1063.97,780.427 1062.97,781.094 1062.5,782.5C 1062.5,783.167 1062.17,783.5 1061.5,783.5C 1059.6,783.738 1058.26,784.738 1057.5,786.5C 1055.97,786.427 1054.97,787.094 1054.5,788.5C 1054.5,789.167 1054.17,789.5 1053.5,789.5C 1051.97,789.427 1050.97,790.094 1050.5,791.5C 1046.47,794.857 1042.13,797.857 1037.5,800.5C 1035.97,800.427 1034.97,801.094 1034.5,802.5C 1034.16,803.338 1033.49,803.672 1032.5,803.5C 1030.97,803.427 1029.97,804.094 1029.5,805.5C 1027.33,805.75 1025.66,806.75 1024.5,808.5C 1022.97,808.427 1021.97,809.094 1021.5,810.5C 1018.76,812.56 1015.76,814.226 1012.5,815.5C 1010.33,815.75 1008.66,816.75 1007.5,818.5C 998.484,823.675 989.151,828.341 979.5,832.5C 976.759,832.707 974.426,833.707 972.5,835.5C 970.447,835.402 968.78,836.069 967.5,837.5C 965.447,837.402 963.78,838.069 962.5,839.5C 959.458,839.733 956.792,840.733 954.5,842.5C 948.473,845.401 942.139,847.734 935.5,849.5C 921.322,852.877 907.322,856.543 893.5,860.5C 884.11,863.041 874.443,864.708 864.5,865.5C 849.881,867.177 835.214,868.344 820.5,869C 818.942,869.21 817.609,869.71 816.5,870.5C 808.167,870.5 799.833,870.5 791.5,870.5C 790.737,869.732 789.737,869.232 788.5,869C 775.806,868.497 763.139,867.664 750.5,866.5C 750.167,866.5 749.833,866.5 749.5,866.5C 748.081,865.549 746.415,865.216 744.5,865.5C 734.545,864.786 724.878,863.119 715.5,860.5C 712.781,859.087 709.781,858.42 706.5,858.5C 696.678,855.543 686.678,852.876 676.5,850.5C 669.62,848.541 662.953,846.208 656.5,843.5C 655.22,842.069 653.553,841.402 651.5,841.5C 650.209,841.737 649.209,841.404 648.5,840.5C 647.22,839.069 645.553,838.402 643.5,838.5C 642.22,837.069 640.553,836.402 638.5,836.5C 636.574,834.707 634.241,833.707 631.5,833.5C 626.375,831.438 621.375,829.104 616.5,826.5C 611.316,822.74 605.65,819.74 599.5,817.5C 594.5,815.336 589.833,812.669 585.5,809.5C 585.027,808.094 584.027,807.427 582.5,807.5C 581.508,807.672 580.842,807.338 580.5,806.5C 580.027,805.094 579.027,804.427 577.5,804.5C 576.341,802.75 574.674,801.75 572.5,801.5C 572.027,800.094 571.027,799.427 569.5,799.5C 566.865,798.189 564.531,796.522 562.5,794.5C 562.027,793.094 561.027,792.427 559.5,792.5C 559.027,791.094 558.027,790.427 556.5,790.5C 555.833,790.5 555.5,790.167 555.5,789.5C 555.027,788.094 554.027,787.427 552.5,787.5C 551.738,785.738 550.404,784.738 548.5,784.5C 547.738,782.738 546.404,781.738 544.5,781.5C 543.833,781.5 543.5,781.167 543.5,780.5C 543.027,779.094 542.027,778.427 540.5,778.5C 539.167,777.833 538.167,776.833 537.5,775.5C 537.027,774.094 536.027,773.427 534.5,773.5C 533.5,773.167 532.833,772.5 532.5,771.5C 531.421,769.457 529.754,768.124 527.5,767.5C 526.5,767.167 525.833,766.5 525.5,765.5C 524.738,763.738 523.404,762.738 521.5,762.5C 518.833,760.5 516.5,758.167 514.5,755.5C 512.1,752.097 509.1,749.43 505.5,747.5C 503.5,746.167 501.833,744.5 500.5,742.5C 497.899,738.229 494.566,734.563 490.5,731.5C 489.167,730.833 488.167,729.833 487.5,728.5C 487.262,726.596 486.262,725.262 484.5,724.5C 482.833,723.5 481.5,722.167 480.5,720.5C 479.92,718.251 478.587,716.585 476.5,715.5C 475.833,715.5 475.5,715.167 475.5,714.5C 475.262,712.596 474.262,711.262 472.5,710.5C 471.833,710.5 471.5,710.167 471.5,709.5C 471.573,707.973 470.906,706.973 469.5,706.5C 467.367,704.909 465.701,702.909 464.5,700.5C 464.573,698.973 463.906,697.973 462.5,697.5C 461.833,697.5 461.5,697.167 461.5,696.5C 461.573,694.973 460.906,693.973 459.5,693.5C 459.262,691.596 458.262,690.262 456.5,689.5C 456.573,687.973 455.906,686.973 454.5,686.5C 454.573,684.973 453.906,683.973 452.5,683.5C 452.573,681.973 451.906,680.973 450.5,680.5C 447.779,677.106 445.446,673.439 443.5,669.5C 443.573,667.973 442.906,666.973 441.5,666.5C 441.25,664.326 440.25,662.659 438.5,661.5C 437.662,661.158 437.328,660.492 437.5,659.5C 437.25,657.326 436.25,655.659 434.5,654.5C 432.25,651.001 430.25,647.335 428.5,643.5C 426.674,638.516 424.341,633.849 421.5,629.5C 420.326,628.486 419.66,627.153 419.5,625.5C 419.293,622.759 418.293,620.426 416.5,618.5C 414.597,615.021 412.93,611.354 411.5,607.5C 410.737,603.863 409.403,600.53 407.5,597.5C 406.269,591.468 404.269,585.801 401.5,580.5C 398.594,573.109 396.261,565.442 394.5,557.5C 389.834,536.84 385.834,516.173 382.5,495.5C 380.084,478.738 379.084,461.738 379.5,444.5C 378.859,424.88 380.193,405.547 383.5,386.5C 386.552,369.57 389.886,352.57 393.5,335.5C 395.215,327.303 397.549,319.303 400.5,311.5C 402.935,307.201 404.602,302.534 405.5,297.5C 407.871,292.735 409.871,287.735 411.5,282.5C 413.322,276.864 415.655,271.531 418.5,266.5C 420.625,263.912 421.958,260.912 422.5,257.5C 425.406,250.019 429.072,243.019 433.5,236.5C 434.906,236.027 435.573,235.027 435.5,233.5C 435.328,232.508 435.662,231.842 436.5,231.5C 438.25,230.341 439.25,228.674 439.5,226.5C 439.328,225.508 439.662,224.842 440.5,224.5C 442.25,223.341 443.25,221.674 443.5,219.5C 444.906,219.027 445.573,218.027 445.5,216.5C 446.906,216.027 447.573,215.027 447.5,213.5C 447.932,212.29 448.599,211.29 449.5,210.5C 450.906,210.027 451.573,209.027 451.5,207.5C 452.906,207.027 453.573,206.027 453.5,204.5C 454.906,204.027 455.573,203.027 455.5,201.5C 456.906,201.027 457.573,200.027 457.5,198.5C 459.262,197.738 460.262,196.404 460.5,194.5C 462.482,191.19 464.815,188.19 467.5,185.5C 468.906,185.027 469.573,184.027 469.5,182.5C 469.5,181.833 469.833,181.5 470.5,181.5C 472.262,180.738 473.262,179.404 473.5,177.5C 473.5,176.833 473.833,176.5 474.5,176.5C 475.906,176.027 476.573,175.027 476.5,173.5C 476.833,172.5 477.5,171.833 478.5,171.5C 480.587,170.415 481.92,168.749 482.5,166.5C 483.5,164.833 484.833,163.5 486.5,162.5C 488.587,161.415 489.92,159.749 490.5,157.5C 492.061,155.027 494.061,153.027 496.5,151.5C 497.833,150.833 498.833,149.833 499.5,148.5C 500.5,148.167 501.167,147.5 501.5,146.5C 503.833,144.833 505.833,142.833 507.5,140.5C 508.833,139.833 509.833,138.833 510.5,137.5C 511.5,137.167 512.167,136.5 512.5,135.5C 513.833,133.5 515.5,131.833 517.5,130.5C 519.749,129.92 521.415,128.587 522.5,126.5C 523.833,124.5 525.5,122.833 527.5,121.5C 529.404,121.262 530.738,120.262 531.5,118.5C 531.833,117.5 532.5,116.833 533.5,116.5C 535.027,116.573 536.027,115.906 536.5,114.5C 536.833,113.5 537.5,112.833 538.5,112.5C 540.404,112.262 541.738,111.262 542.5,109.5C 544.404,109.262 545.738,108.262 546.5,106.5C 548.86,104.147 551.527,102.147 554.5,100.5C 556.404,100.262 557.738,99.2624 558.5,97.5C 560.027,97.573 561.027,96.9063 561.5,95.5C 563.027,95.573 564.027,94.9063 564.5,93.5C 566.027,93.573 567.027,92.9063 567.5,91.5C 569.027,91.573 570.027,90.9063 570.5,89.5C 572.027,89.573 573.027,88.9063 573.5,87.5C 575.027,87.573 576.027,86.9063 576.5,85.5C 578.027,85.573 579.027,84.9063 579.5,83.5C 579.842,82.6618 580.508,82.3284 581.5,82.5C 583.027,82.573 584.027,81.9063 584.5,80.5C 586.674,80.2503 588.341,79.2503 589.5,77.5C 589.842,76.6618 590.508,76.3284 591.5,76.5C 593.674,76.2503 595.341,75.2503 596.5,73.5C 603.686,68.7387 611.353,64.7387 619.5,61.5C 623.582,60.6236 627.249,58.9569 630.5,56.5C 635.591,53.7961 640.924,51.4627 646.5,49.5C 649.542,49.2671 652.208,48.2671 654.5,46.5C 655.209,45.596 656.209,45.2627 657.5,45.5C 663.784,44.072 669.784,42.072 675.5,39.5C 682.183,36.7425 689.183,34.7425 696.5,33.5C 718.747,28.2937 741.08,24.2937 763.5,21.5C 767.4,20.5701 771.4,20.2367 775.5,20.5C 775.435,20.9382 775.601,21.2716 776,21.5C 781.267,20.8549 786.433,20.1882 791.5,19.5 Z"/></g>
<g><path style="opacity:0.452" fill="#cb1f24" d="M 814.5,19.5 C 819.363,19.1805 824.03,19.5139 828.5,20.5C 828.565,20.9382 828.399,21.2716 828,21.5C 823.399,20.858 818.899,20.1913 814.5,19.5 Z"/></g>
<g><path style="opacity:0.392" fill="#cb1f24" d="M 763.5,21.5 C 741.08,24.2937 718.747,28.2937 696.5,33.5C 704.144,30.5288 712.144,28.3621 720.5,27C 734.717,24.1831 749.051,22.3498 763.5,21.5 Z"/></g>
<g><path style="opacity:0.47" fill="#cb1f24" d="M 838.5,21.5 C 849.569,21.9705 860.569,23.1372 871.5,25C 870.934,25.9947 870.267,26.828 869.5,27.5C 869.03,26.3065 868.03,25.6399 866.5,25.5C 857,24.3151 847.667,22.9817 838.5,21.5 Z"/></g>
<g><path style="opacity:0.408" fill="#cb1f24" d="M 868.5,28.5 C 868.573,30.0269 867.906,31.0269 866.5,31.5C 866.427,29.9731 867.094,28.9731 868.5,28.5 Z"/></g>
<g><path style="opacity:0.408" fill="#cb1f24" d="M 865.5,32.5 C 865.573,34.0269 864.906,35.0269 863.5,35.5C 863.427,33.9731 864.094,32.9731 865.5,32.5 Z"/></g>
<g><path style="opacity:0.364" fill="#cb1f24" d="M 862.5,36.5 C 862.573,38.0269 861.906,39.0269 860.5,39.5C 860.427,37.9731 861.094,36.9731 862.5,36.5 Z"/></g>
<g><path style="opacity:0.411" fill="#cb1f24" d="M 675.5,39.5 C 669.784,42.072 663.784,44.072 657.5,45.5C 663.085,42.5271 669.085,40.5271 675.5,39.5 Z"/></g>
<g><path style="opacity:0.351" fill="#cb1f24" d="M 931.5,42.5 C 928.399,42.3083 925.399,41.6416 922.5,40.5C 922.167,41.1667 921.833,41.8333 921.5,42.5C 923.758,51.4588 925.758,60.4588 927.5,69.5C 924.39,60.0725 921.724,50.4058 919.5,40.5C 923.79,39.5742 927.79,40.2409 931.5,42.5 Z"/></g>
<g><path style="opacity:0.377" fill="#cb1f24" d="M 931.5,42.5 C 938.915,43.8604 945.915,46.1937 952.5,49.5C 945.216,47.7387 938.216,45.4054 931.5,42.5 Z"/></g>
<g><path style="opacity:0.456" fill="#cb1f24" d="M 855.5,45.5 C 855.573,47.0269 854.906,48.0269 853.5,48.5C 853.427,46.9731 854.094,45.9731 855.5,45.5 Z"/></g>
<g><path style="opacity:0.315" fill="#cb1f24" d="M 654.5,46.5 C 652.208,48.2671 649.542,49.2671 646.5,49.5C 648.792,47.7329 651.458,46.7329 654.5,46.5 Z"/></g>
<g><path style="opacity:0.408" fill="#cb1f24" d="M 852.5,49.5 C 852.573,51.0269 851.906,52.0269 850.5,52.5C 850.427,50.9731 851.094,49.9731 852.5,49.5 Z"/></g>
<g><path style="opacity:0.377" fill="#cb1f24" d="M 850.5,52.5 C 850.262,54.4044 849.262,55.7377 847.5,56.5C 847.738,54.5956 848.738,53.2623 850.5,52.5 Z"/></g>
<g><path style="opacity:0.403" fill="#cb1f24" d="M 630.5,56.5 C 627.249,58.9569 623.582,60.6236 619.5,61.5C 622.751,59.0431 626.418,57.3764 630.5,56.5 Z"/></g>
<g><path style="opacity:0.377" fill="#cb1f24" d="M 847.5,56.5 C 847.262,58.4044 846.262,59.7377 844.5,60.5C 844.738,58.5956 845.738,57.2623 847.5,56.5 Z"/></g>
<g><path style="opacity:0.44" fill="#cb1f24" d="M 970.5,56.5 C 973.241,56.7073 975.574,57.7073 977.5,59.5C 974.759,59.2927 972.426,58.2927 970.5,56.5 Z"/></g>
<g><path style="opacity:0.397" fill="#cb1f24" d="M 977.5,59.5 C 980.241,59.7073 982.574,60.7073 984.5,62.5C 981.759,62.2927 979.426,61.2927 977.5,59.5 Z"/></g>
<g><path style="opacity:0.383" fill="#cb1f24" d="M 986.5,63.5 C 989.089,63.461 991.089,64.461 992.5,66.5C 990.181,66.0075 988.181,65.0075 986.5,63.5 Z"/></g>
<g><path style="opacity:0.36" fill="#cb1f24" d="M 836.5,70.5 C 836.586,71.4959 836.252,72.3292 835.5,73C 814.5,73.3333 793.5,73.6667 772.5,74C 756.05,75.3739 739.717,77.5405 723.5,80.5C 738.124,76.5743 753.124,74.0743 768.5,73C 791.224,72.0294 813.89,71.196 836.5,70.5 Z"/></g>
<g><path style="opacity:0.422" fill="#cb1f24" d="M 596.5,73.5 C 595.341,75.2503 593.674,76.2503 591.5,76.5C 592.659,74.7497 594.326,73.7497 596.5,73.5 Z"/></g>
<g><path style="opacity:0.389" fill="#cb1f24" d="M 1010.5,75.5 C 1013.33,76.0787 1015.66,77.412 1017.5,79.5C 1014.67,78.9213 1012.34,77.588 1010.5,75.5 Z"/></g>
<g><path style="opacity:0.367" fill="#cb1f24" d="M 589.5,77.5 C 588.341,79.2503 586.674,80.2503 584.5,80.5C 585.659,78.7497 587.326,77.7497 589.5,77.5 Z"/></g>
<g><path style="opacity:0.408" fill="#cb1f24" d="M 584.5,80.5 C 584.027,81.9063 583.027,82.573 581.5,82.5C 581.973,81.0937 582.973,80.427 584.5,80.5 Z"/></g>
<g><path style="opacity:0.359" fill="#cb1f24" d="M 1019.5,80.5 C 1021.03,80.427 1022.03,81.0937 1022.5,82.5C 1020.97,82.573 1019.97,81.9063 1019.5,80.5 Z"/></g>
<g><path style="opacity:0.315" fill="#cb1f24" d="M 579.5,83.5 C 579.027,84.9063 578.027,85.573 576.5,85.5C 576.973,84.0937 577.973,83.427 579.5,83.5 Z"/></g>
<g><path style="opacity:0.408" fill="#cb1f24" d="M 576.5,85.5 C 576.027,86.9063 575.027,87.573 573.5,87.5C 573.973,86.0937 574.973,85.427 576.5,85.5 Z"/></g>
<g><path style="opacity:0.344" fill="#cb1f24" d="M 703.5,85.5 C 695.901,89.0738 687.901,91.7405 679.5,93.5C 687.196,90.2349 695.196,87.5682 703.5,85.5 Z"/></g>
<g><path style="opacity:0.408" fill="#cb1f24" d="M 573.5,87.5 C 573.027,88.9063 572.027,89.573 570.5,89.5C 570.973,88.0937 571.973,87.427 573.5,87.5 Z"/></g>
<g><path style="opacity:0.408" fill="#cb1f24" d="M 570.5,89.5 C 570.027,90.9063 569.027,91.573 567.5,91.5C 567.973,90.0937 568.973,89.427 570.5,89.5 Z"/></g>
<g><path style="opacity:0.425" fill="#cb1f24" d="M 1035.5,90.5 C 1037.67,90.7497 1039.34,91.7497 1040.5,93.5C 1038.33,93.2503 1036.66,92.2503 1035.5,90.5 Z"/></g>
<g><path style="opacity:0.408" fill="#cb1f24" d="M 567.5,91.5 C 567.027,92.9063 566.027,93.573 564.5,93.5C 564.973,92.0937 565.973,91.427 567.5,91.5 Z"/></g>
<g><path style="opacity:0.408" fill="#cb1f24" d="M 564.5,93.5 C 564.027,94.9063 563.027,95.573 561.5,95.5C 561.973,94.0937 562.973,93.427 564.5,93.5 Z"/></g>
<g><path style="opacity:0.267" fill="#cb1f24" d="M 1040.5,93.5 C 1042.03,93.427 1043.03,94.0937 1043.5,95.5C 1041.97,95.573 1040.97,94.9063 1040.5,93.5 Z"/></g>
<g><path style="opacity:0.471" fill="#cb1f24" d="M 676.5,94.5 C 675.22,95.9313 673.553,96.5979 671.5,96.5C 672.78,95.0687 674.447,94.4021 676.5,94.5 Z"/></g>
<g><path style="opacity:0.364" fill="#cb1f24" d="M 561.5,95.5 C 561.027,96.9063 560.027,97.573 558.5,97.5C 558.973,96.0937 559.973,95.427 561.5,95.5 Z"/></g>
<g><path style="opacity:0.315" fill="#cb1f24" d="M 1043.5,95.5 C 1045.03,95.427 1046.03,96.0937 1046.5,97.5C 1044.97,97.573 1043.97,96.9063 1043.5,95.5 Z"/></g>
<g><path style="opacity:0.344" fill="#cb1f24" d="M 558.5,97.5 C 557.738,99.2624 556.404,100.262 554.5,100.5C 555.262,98.7376 556.596,97.7376 558.5,97.5 Z"/></g>
<g><path style="opacity:0.267" fill="#cb1f24" d="M 1046.5,97.5 C 1048.03,97.427 1049.03,98.0937 1049.5,99.5C 1047.97,99.573 1046.97,98.9063 1046.5,97.5 Z"/></g>
<g><path style="opacity:0.364" fill="#cb1f24" d="M 1050.5,100.5 C 1052.03,100.427 1053.03,101.094 1053.5,102.5C 1051.97,102.573 1050.97,101.906 1050.5,100.5 Z"/></g>
<g><path style="opacity:0.303" fill="#cb1f24" d="M 657.5,102.5 C 654.249,104.957 650.582,106.624 646.5,107.5C 649.751,105.043 653.418,103.376 657.5,102.5 Z"/></g>
<g><path style="opacity:0.314" fill="#cb1f24" d="M 948.5,103.5 C 951.912,104.042 954.912,105.375 957.5,107.5C 954.088,106.958 951.088,105.625 948.5,103.5 Z"/></g>
<g><path style="opacity:0.409" fill="#cb1f24" d="M 546.5,106.5 C 545.738,108.262 544.404,109.262 542.5,109.5C 543.262,107.738 544.596,106.738 546.5,106.5 Z"/></g>
<g><path style="opacity:0.456" fill="#cb1f24" d="M 1058.5,106.5 C 1060.03,106.427 1061.03,107.094 1061.5,108.5C 1059.97,108.573 1058.97,107.906 1058.5,106.5 Z"/></g>
<g><path style="opacity:0.437" fill="#cb1f24" d="M 646.5,107.5 C 642.818,110.008 638.818,112.008 634.5,113.5C 637.914,110.46 641.914,108.46 646.5,107.5 Z"/></g>
<g><path style="opacity:0.403" fill="#cb1f24" d="M 957.5,107.5 C 961.582,108.376 965.249,110.043 968.5,112.5C 964.418,111.624 960.751,109.957 957.5,107.5 Z"/></g>
<g><path style="opacity:0.348" fill="#cb1f24" d="M 542.5,109.5 C 541.738,111.262 540.404,112.262 538.5,112.5C 539.262,110.738 540.596,109.738 542.5,109.5 Z"/></g>
<g><path style="opacity:0.408" fill="#cb1f24" d="M 1062.5,109.5 C 1064.03,109.427 1065.03,110.094 1065.5,111.5C 1063.97,111.573 1062.97,110.906 1062.5,109.5 Z"/></g>
<g><path style="opacity:0.408" fill="#cb1f24" d="M 1066.5,112.5 C 1068.03,112.427 1069.03,113.094 1069.5,114.5C 1067.97,114.573 1066.97,113.906 1066.5,112.5 Z"/></g>
<g><path style="opacity:0.364" fill="#cb1f24" d="M 536.5,114.5 C 536.027,115.906 535.027,116.573 533.5,116.5C 533.973,115.094 534.973,114.427 536.5,114.5 Z"/></g>
<g><path style="opacity:0.359" fill="#cb1f24" d="M 972.5,114.5 C 974.027,114.427 975.027,115.094 975.5,116.5C 973.973,116.573 972.973,115.906 972.5,114.5 Z"/></g>
<g><path style="opacity:0.377" fill="#cb1f24" d="M 1070.5,115.5 C 1072.4,115.738 1073.74,116.738 1074.5,118.5C 1072.6,118.262 1071.26,117.262 1070.5,115.5 Z"/></g>
<g><path style="opacity:0.315" fill="#cb1f24" d="M 531.5,118.5 C 530.738,120.262 529.404,121.262 527.5,121.5C 528.262,119.738 529.596,118.738 531.5,118.5 Z"/></g>
<g><path style="opacity:0.315" fill="#cb1f24" d="M 623.5,119.5 C 623.027,120.906 622.027,121.573 620.5,121.5C 620.973,120.094 621.973,119.427 623.5,119.5 Z"/></g>
<g><path style="opacity:0.359" fill="#cb1f24" d="M 983.5,120.5 C 985.027,120.427 986.027,121.094 986.5,122.5C 984.973,122.573 983.973,121.906 983.5,120.5 Z"/></g>
<g><path style="opacity:0.369" fill="#cb1f24" d="M 618.5,122.5 C 617.341,124.25 615.674,125.25 613.5,125.5C 614.659,123.75 616.326,122.75 618.5,122.5 Z"/></g>
<g><path style="opacity:0.456" fill="#cb1f24" d="M 875.5,124.5 C 875.56,123.957 875.893,123.624 876.5,123.5C 877.386,124.325 877.719,125.325 877.5,126.5C 876.833,125.833 876.167,125.167 875.5,124.5 Z"/></g>
<g><path style="opacity:0.394" fill="#cb1f24" d="M 988.5,123.5 C 990.674,123.75 992.341,124.75 993.5,126.5C 991.326,126.25 989.659,125.25 988.5,123.5 Z"/></g>
<g><path style="opacity:0.999" fill="#cb1f25" d="M 875.5,124.5 C 876.167,125.167 876.833,125.833 877.5,126.5C 878.301,128.042 878.634,129.708 878.5,131.5C 880.899,145.085 883.899,158.419 887.5,171.5C 887.42,174.781 888.087,177.781 889.5,180.5C 892.119,190.318 894.453,200.318 896.5,210.5C 899.074,225.783 902.407,240.783 906.5,255.5C 908.991,264.273 910.991,273.273 912.5,282.5C 915.215,297.423 918.548,312.09 922.5,326.5C 925.452,336.577 927.785,346.91 929.5,357.5C 932.232,372.419 935.566,387.086 939.5,401.5C 939.42,404.781 940.087,407.781 941.5,410.5C 943.657,417.605 945.324,424.939 946.5,432.5C 948.577,443.887 950.911,455.22 953.5,466.5C 856.524,444.909 759.857,422.575 663.5,399.5C 665.262,398.738 666.262,397.404 666.5,395.5C 668.262,394.738 669.262,393.404 669.5,391.5C 669.833,390.5 670.5,389.833 671.5,389.5C 672.906,389.027 673.573,388.027 673.5,386.5C 673.5,385.833 673.833,385.5 674.5,385.5C 675.906,385.027 676.573,384.027 676.5,382.5C 676.5,381.833 676.833,381.5 677.5,381.5C 678.906,381.027 679.573,380.027 679.5,378.5C 679.5,377.833 679.833,377.5 680.5,377.5C 682.262,376.738 683.262,375.404 683.5,373.5C 685.262,372.738 686.262,371.404 686.5,369.5C 687.701,367.091 689.367,365.091 691.5,363.5C 692.906,363.027 693.573,362.027 693.5,360.5C 693.5,359.833 693.833,359.5 694.5,359.5C 695.906,359.027 696.573,358.027 696.5,356.5C 696.5,355.833 696.833,355.5 697.5,355.5C 698.906,355.027 699.573,354.027 699.5,352.5C 699.5,351.833 699.833,351.5 700.5,351.5C 702.262,350.738 703.262,349.404 703.5,347.5C 703.5,346.833 703.833,346.5 704.5,346.5C 705.906,346.027 706.573,345.027 706.5,343.5C 707.701,341.091 709.367,339.091 711.5,337.5C 712.906,337.027 713.573,336.027 713.5,334.5C 715.262,333.738 716.262,332.404 716.5,330.5C 716.5,329.833 716.833,329.5 717.5,329.5C 718.906,329.027 719.573,328.027 719.5,326.5C 719.5,325.833 719.833,325.5 720.5,325.5C 722.262,324.738 723.262,323.404 723.5,321.5C 723.5,320.833 723.833,320.5 724.5,320.5C 725.906,320.027 726.573,319.027 726.5,317.5C 726.833,316.5 727.5,315.833 728.5,315.5C 729.906,315.027 730.573,314.027 730.5,312.5C 730.5,311.833 730.833,311.5 731.5,311.5C 732.906,311.027 733.573,310.027 733.5,308.5C 735.262,307.738 736.262,306.404 736.5,304.5C 737.701,302.091 739.367,300.091 741.5,298.5C 742.906,298.027 743.573,297.027 743.5,295.5C 743.5,294.833 743.833,294.5 744.5,294.5C 745.906,294.027 746.573,293.027 746.5,291.5C 746.5,290.833 746.833,290.5 747.5,290.5C 749.262,289.738 750.262,288.404 750.5,286.5C 752.262,285.738 753.262,284.404 753.5,282.5C 755.817,278.854 758.484,275.52 761.5,272.5C 762.906,272.027 763.573,271.027 763.5,269.5C 763.5,268.833 763.833,268.5 764.5,268.5C 766.262,267.738 767.262,266.404 767.5,264.5C 769.262,263.738 770.262,262.404 770.5,260.5C 772.262,259.738 773.262,258.404 773.5,256.5C 774.701,254.091 776.367,252.091 778.5,250.5C 779.906,250.027 780.573,249.027 780.5,247.5C 780.5,246.833 780.833,246.5 781.5,246.5C 782.906,246.027 783.573,245.027 783.5,243.5C 783.5,242.833 783.833,242.5 784.5,242.5C 785.906,242.027 786.573,241.027 786.5,239.5C 786.5,238.833 786.833,238.5 787.5,238.5C 788.906,238.027 789.573,237.027 789.5,235.5C 789.833,234.5 790.5,233.833 791.5,233.5C 792.906,233.027 793.573,232.027 793.5,230.5C 794.701,228.091 796.367,226.091 798.5,224.5C 799.906,224.027 800.573,223.027 800.5,221.5C 800.5,220.833 800.833,220.5 801.5,220.5C 802.906,220.027 803.573,219.027 803.5,217.5C 803.5,216.833 803.833,216.5 804.5,216.5C 805.906,216.027 806.573,215.027 806.5,213.5C 808.817,209.854 811.484,206.52 814.5,203.5C 816.262,202.738 817.262,201.404 817.5,199.5C 819.262,198.738 820.262,197.404 820.5,195.5C 822.262,194.738 823.262,193.404 823.5,191.5C 824.701,189.091 826.367,187.091 828.5,185.5C 829.906,185.027 830.573,184.027 830.5,182.5C 830.5,181.833 830.833,181.5 831.5,181.5C 832.906,181.027 833.573,180.027 833.5,178.5C 833.5,177.833 833.833,177.5 834.5,177.5C 835.906,177.027 836.573,176.027 836.5,174.5C 836.5,173.833 836.833,173.5 837.5,173.5C 838.906,173.027 839.573,172.027 839.5,170.5C 839.833,169.5 840.5,168.833 841.5,168.5C 842.906,168.027 843.573,167.027 843.5,165.5C 843.833,164.5 844.5,163.833 845.5,163.5C 846.906,163.027 847.573,162.027 847.5,160.5C 847.5,159.833 847.833,159.5 848.5,159.5C 849.906,159.027 850.573,158.027 850.5,156.5C 850.5,155.833 850.833,155.5 851.5,155.5C 852.906,155.027 853.573,154.027 853.5,152.5C 853.5,151.833 853.833,151.5 854.5,151.5C 855.906,151.027 856.573,150.027 856.5,148.5C 856.833,147.5 857.5,146.833 858.5,146.5C 859.906,146.027 860.573,145.027 860.5,143.5C 861.701,141.091 863.367,139.091 865.5,137.5C 866.906,137.027 867.573,136.027 867.5,134.5C 867.5,133.833 867.833,133.5 868.5,133.5C 869.906,133.027 870.573,132.027 870.5,130.5C 872.262,129.738 873.262,128.404 873.5,126.5C 873.833,125.5 874.5,124.833 875.5,124.5 Z"/></g>
<g><path style="opacity:0.408" fill="#cb1f24" d="M 613.5,125.5 C 613.027,126.906 612.027,127.573 610.5,127.5C 610.973,126.094 611.973,125.427 613.5,125.5 Z"/></g>
<g><path style="opacity:0.41" fill="#cb1f24" d="M 522.5,126.5 C 521.415,128.587 519.749,129.92 517.5,130.5C 518.585,128.413 520.251,127.08 522.5,126.5 Z"/></g>
<g><path style="opacity:0.315" fill="#cb1f24" d="M 873.5,126.5 C 873.262,128.404 872.262,129.738 870.5,130.5C 870.738,128.596 871.738,127.262 873.5,126.5 Z"/></g>
<g><path style="opacity:0.367" fill="#cb1f24" d="M 993.5,126.5 C 995.674,126.75 997.341,127.75 998.5,129.5C 996.326,129.25 994.659,128.25 993.5,126.5 Z"/></g>
<g><path style="opacity:0.432" fill="#cb1f24" d="M 1083.5,126.5 C 1085.75,127.08 1087.42,128.413 1088.5,130.5C 1086.25,129.92 1084.58,128.587 1083.5,126.5 Z"/></g>
<g><path style="opacity:0.422" fill="#cb1f24" d="M 610.5,127.5 C 609.341,129.25 607.674,130.25 605.5,130.5C 606.659,128.75 608.326,127.75 610.5,127.5 Z"/></g>
<g><path style="opacity:0.408" fill="#cb1f24" d="M 998.5,129.5 C 1000.03,129.427 1001.03,130.094 1001.5,131.5C 999.973,131.573 998.973,130.906 998.5,129.5 Z"/></g>
<g><path style="opacity:0.408" fill="#cb1f24" d="M 870.5,130.5 C 870.573,132.027 869.906,133.027 868.5,133.5C 868.427,131.973 869.094,130.973 870.5,130.5 Z"/></g>
<g><path style="opacity:0.36" fill="#cb1f24" d="M 878.5,131.5 C 882.416,144.509 885.416,157.843 887.5,171.5C 883.899,158.419 880.899,145.085 878.5,131.5 Z"/></g>
<g><path style="opacity:0.456" fill="#cb1f24" d="M 867.5,134.5 C 867.573,136.027 866.906,137.027 865.5,137.5C 865.427,135.973 866.094,134.973 867.5,134.5 Z"/></g>
<g><path style="opacity:0.378" fill="#cc1f24" d="M 512.5,135.5 C 512.167,136.5 511.5,137.167 510.5,137.5C 510.5,136.167 511.167,135.5 512.5,135.5 Z"/></g>
<g><path style="opacity:0.353" fill="#cc1f24" d="M 510.5,137.5 C 509.833,138.833 508.833,139.833 507.5,140.5C 507.5,138.5 508.5,137.5 510.5,137.5 Z"/></g>
<g><path style="opacity:0.364" fill="#cb1f24" d="M 595.5,137.5 C 595.027,138.906 594.027,139.573 592.5,139.5C 592.973,138.094 593.973,137.427 595.5,137.5 Z"/></g>
<g><path style="opacity:0.344" fill="#cb1f24" d="M 1010.5,137.5 C 1012.4,137.738 1013.74,138.738 1014.5,140.5C 1012.6,140.262 1011.26,139.262 1010.5,137.5 Z"/></g>
<g><path style="opacity:0.412" fill="#cb1f24" d="M 1095.5,137.5 C 1098.09,138.419 1100.09,140.086 1101.5,142.5C 1098.91,141.581 1096.91,139.914 1095.5,137.5 Z"/></g>
<g><path style="opacity:0.377" fill="#cb1f24" d="M 592.5,139.5 C 591.738,141.262 590.404,142.262 588.5,142.5C 589.262,140.738 590.596,139.738 592.5,139.5 Z"/></g>
<g><path style="opacity:0.333" fill="#cc1f24" d="M 507.5,140.5 C 505.833,142.833 503.833,144.833 501.5,146.5C 502.5,143.5 504.5,141.5 507.5,140.5 Z"/></g>
<g><path style="opacity:0.267" fill="#cb1f24" d="M 1014.5,140.5 C 1016.03,140.427 1017.03,141.094 1017.5,142.5C 1015.97,142.573 1014.97,141.906 1014.5,140.5 Z"/></g>
<g><path style="opacity:0.408" fill="#cb1f24" d="M 588.5,142.5 C 588.027,143.906 587.027,144.573 585.5,144.5C 585.973,143.094 586.973,142.427 588.5,142.5 Z"/></g>
<g><path style="opacity:0.315" fill="#cb1f24" d="M 1017.5,142.5 C 1019.4,142.738 1020.74,143.738 1021.5,145.5C 1019.6,145.262 1018.26,144.262 1017.5,142.5 Z"/></g>
<g><path style="opacity:0.408" fill="#cb1f24" d="M 860.5,143.5 C 860.573,145.027 859.906,146.027 858.5,146.5C 858.427,144.973 859.094,143.973 860.5,143.5 Z"/></g>
<g><path style="opacity:0.408" fill="#cb1f24" d="M 584.5,145.5 C 584.027,146.906 583.027,147.573 581.5,147.5C 581.973,146.094 582.973,145.427 584.5,145.5 Z"/></g>
<g><path style="opacity:0.408" fill="#cb1f24" d="M 1021.5,145.5 C 1023.03,145.427 1024.03,146.094 1024.5,147.5C 1022.97,147.573 1021.97,146.906 1021.5,145.5 Z"/></g>
<g><path style="opacity:0.378" fill="#cc1f24" d="M 501.5,146.5 C 501.167,147.5 500.5,148.167 499.5,148.5C 499.5,147.167 500.167,146.5 501.5,146.5 Z"/></g>
<g><path style="opacity:0.466" fill="#cb1f24" d="M 1105.5,146.5 C 1107.83,148.167 1109.83,150.167 1111.5,152.5C 1108.5,151.5 1106.5,149.5 1105.5,146.5 Z"/></g>
<g><path style="opacity:0.353" fill="#cc1f24" d="M 499.5,148.5 C 498.833,149.833 497.833,150.833 496.5,151.5C 496.5,149.5 497.5,148.5 499.5,148.5 Z"/></g>
<g><path style="opacity:0.456" fill="#cb1f24" d="M 580.5,148.5 C 580.027,149.906 579.027,150.573 577.5,150.5C 577.973,149.094 578.973,148.427 580.5,148.5 Z"/></g>
<g><path style="opacity:0.364" fill="#cb1f24" d="M 856.5,148.5 C 856.573,150.027 855.906,151.027 854.5,151.5C 854.427,149.973 855.094,148.973 856.5,148.5 Z"/></g>
<g><path style="opacity:0.364" fill="#cb1f24" d="M 1025.5,148.5 C 1027.03,148.427 1028.03,149.094 1028.5,150.5C 1026.97,150.573 1025.97,149.906 1025.5,148.5 Z"/></g>
<g><path style="opacity:0.408" fill="#cb1f24" d="M 853.5,152.5 C 853.573,154.027 852.906,155.027 851.5,155.5C 851.427,153.973 852.094,152.973 853.5,152.5 Z"/></g>
<g><path style="opacity:0.364" fill="#cb1f24" d="M 1030.5,152.5 C 1032.03,152.427 1033.03,153.094 1033.5,154.5C 1031.97,154.573 1030.97,153.906 1030.5,152.5 Z"/></g>
<g><path style="opacity:0.412" fill="#cb1f24" d="M 1111.5,152.5 C 1113.26,153.262 1114.26,154.596 1114.5,156.5C 1112.74,155.738 1111.74,154.404 1111.5,152.5 Z"/></g>
<g><path style="opacity:0.348" fill="#cb1f24" d="M 574.5,153.5 C 573.738,155.262 572.404,156.262 570.5,156.5C 571.262,154.738 572.596,153.738 574.5,153.5 Z"/></g>
<g><path style="opacity:0.408" fill="#cb1f24" d="M 850.5,156.5 C 850.573,158.027 849.906,159.027 848.5,159.5C 848.427,157.973 849.094,156.973 850.5,156.5 Z"/></g>
<g><path style="opacity:0.335" fill="#cb1f24" d="M 1035.5,156.5 C 1038.09,157.419 1040.09,159.086 1041.5,161.5C 1038.91,160.581 1036.91,158.914 1035.5,156.5 Z"/></g>
<g><path style="opacity:0.432" fill="#cb1f24" d="M 490.5,157.5 C 489.92,159.749 488.587,161.415 486.5,162.5C 487.08,160.251 488.413,158.585 490.5,157.5 Z"/></g>
<g><path style="opacity:0.377" fill="#cb1f24" d="M 568.5,158.5 C 567.738,160.262 566.404,161.262 564.5,161.5C 565.262,159.738 566.596,158.738 568.5,158.5 Z"/></g>
<g><path style="opacity:0.456" fill="#cb1f24" d="M 847.5,160.5 C 847.573,162.027 846.906,163.027 845.5,163.5C 845.427,161.973 846.094,160.973 847.5,160.5 Z"/></g>
<g><path style="opacity:0.41" fill="#cb1f24" d="M 1042.5,162.5 C 1044.75,163.08 1046.42,164.413 1047.5,166.5C 1045.25,165.92 1043.58,164.587 1042.5,162.5 Z"/></g>
<g><path style="opacity:0.386" fill="#cb1f24" d="M 1122.5,164.5 C 1124.59,165.585 1125.92,167.251 1126.5,169.5C 1124.41,168.415 1123.08,166.749 1122.5,164.5 Z"/></g>
<g><path style="opacity:0.359" fill="#cb1f24" d="M 560.5,165.5 C 557.105,169.898 553.105,173.564 548.5,176.5C 551.895,172.102 555.895,168.436 560.5,165.5 Z"/></g>
<g><path style="opacity:0.364" fill="#cb1f24" d="M 843.5,165.5 C 843.573,167.027 842.906,168.027 841.5,168.5C 841.427,166.973 842.094,165.973 843.5,165.5 Z"/></g>
<g><path style="opacity:0.364" fill="#cb1f24" d="M 482.5,166.5 C 481.92,168.749 480.587,170.415 478.5,171.5C 479.08,169.251 480.413,167.585 482.5,166.5 Z"/></g>
<g><path style="opacity:0.267" fill="#cb1f24" d="M 839.5,170.5 C 839.573,172.027 838.906,173.027 837.5,173.5C 837.427,171.973 838.094,170.973 839.5,170.5 Z"/></g>
<g><path style="opacity:0.465" fill="#cb1f24" d="M 887.5,171.5 C 888.913,174.219 889.58,177.219 889.5,180.5C 888.087,177.781 887.42,174.781 887.5,171.5 Z"/></g>
<g><path style="opacity:0.456" fill="#cb1f24" d="M 1128.5,171.5 C 1129.91,171.973 1130.57,172.973 1130.5,174.5C 1129.09,174.027 1128.43,173.027 1128.5,171.5 Z"/></g>
<g><path style="opacity:0.364" fill="#cb1f24" d="M 476.5,173.5 C 476.573,175.027 475.906,176.027 474.5,176.5C 474.427,174.973 475.094,173.973 476.5,173.5 Z"/></g>
<g><path style="opacity:0.364" fill="#cb1f24" d="M 836.5,174.5 C 836.573,176.027 835.906,177.027 834.5,177.5C 834.427,175.973 835.094,174.973 836.5,174.5 Z"/></g>
<g><path style="opacity:0.482" fill="#ca1f24" d="M 1055.5,174.5 C 1058.5,175.5 1060.5,177.5 1061.5,180.5C 1059.17,178.833 1057.17,176.833 1055.5,174.5 Z"/></g>
<g><path style="opacity:0.409" fill="#cb1f24" d="M 473.5,177.5 C 473.262,179.404 472.262,180.738 470.5,181.5C 470.738,179.596 471.738,178.262 473.5,177.5 Z"/></g>
<g><path style="opacity:0.456" fill="#cb1f24" d="M 1133.5,177.5 C 1134.91,177.973 1135.57,178.973 1135.5,180.5C 1134.09,180.027 1133.43,179.027 1133.5,177.5 Z"/></g>
<g><path style="opacity:0.364" fill="#cb1f24" d="M 833.5,178.5 C 833.573,180.027 832.906,181.027 831.5,181.5C 831.427,179.973 832.094,178.973 833.5,178.5 Z"/></g>
<g><path style="opacity:0.383" fill="#cb1f24" d="M 545.5,179.5 C 543.906,182.764 541.573,185.431 538.5,187.5C 540.094,184.236 542.427,181.569 545.5,179.5 Z"/></g>
<g><path style="opacity:0.456" fill="#cb1f24" d="M 469.5,182.5 C 469.573,184.027 468.906,185.027 467.5,185.5C 467.427,183.973 468.094,182.973 469.5,182.5 Z"/></g>
<g><path style="opacity:0.456" fill="#cb1f24" d="M 830.5,182.5 C 830.573,184.027 829.906,185.027 828.5,185.5C 828.427,183.973 829.094,182.973 830.5,182.5 Z"/></g>
<g><path style="opacity:0.364" fill="#cb1f24" d="M 1138.5,183.5 C 1139.91,183.973 1140.57,184.973 1140.5,186.5C 1139.09,186.027 1138.43,185.027 1138.5,183.5 Z"/></g>
<g><path style="opacity:0.408" fill="#cb1f24" d="M 1141.5,187.5 C 1142.91,187.973 1143.57,188.973 1143.5,190.5C 1142.09,190.027 1141.43,189.027 1141.5,187.5 Z"/></g>
<g><path style="opacity:0.34" fill="#cb1f24" d="M 535.5,190.5 C 534.92,192.749 533.587,194.415 531.5,195.5C 532.08,193.251 533.413,191.585 535.5,190.5 Z"/></g>
<g><path style="opacity:0.428" fill="#cb1f24" d="M 1071.5,190.5 C 1073.91,191.911 1075.58,193.911 1076.5,196.5C 1074.09,195.089 1072.42,193.089 1071.5,190.5 Z"/></g>
<g><path style="opacity:0.315" fill="#cb1f24" d="M 823.5,191.5 C 823.262,193.404 822.262,194.738 820.5,195.5C 820.738,193.596 821.738,192.262 823.5,191.5 Z"/></g>
<g><path style="opacity:0.408" fill="#cb1f24" d="M 1144.5,191.5 C 1145.91,191.973 1146.57,192.973 1146.5,194.5C 1145.09,194.027 1144.43,193.027 1144.5,191.5 Z"/></g>
<g><path style="opacity:0.344" fill="#cb1f24" d="M 460.5,194.5 C 460.262,196.404 459.262,197.738 457.5,198.5C 457.738,196.596 458.738,195.262 460.5,194.5 Z"/></g>
<g><path style="opacity:0.377" fill="#cb1f24" d="M 820.5,195.5 C 820.262,197.404 819.262,198.738 817.5,199.5C 817.738,197.596 818.738,196.262 820.5,195.5 Z"/></g>
<g><path style="opacity:0.315" fill="#cb1f24" d="M 1076.5,196.5 C 1078.59,197.585 1079.92,199.251 1080.5,201.5C 1078.41,200.415 1077.08,198.749 1076.5,196.5 Z"/></g>
<g><path style="opacity:0.408" fill="#cb1f24" d="M 457.5,198.5 C 457.573,200.027 456.906,201.027 455.5,201.5C 455.427,199.973 456.094,198.973 457.5,198.5 Z"/></g>
<g><path style="opacity:0.409" fill="#cb1f24" d="M 528.5,198.5 C 528.262,200.404 527.262,201.738 525.5,202.5C 525.738,200.596 526.738,199.262 528.5,198.5 Z"/></g>
<g><path style="opacity:0.409" fill="#cb1f24" d="M 817.5,199.5 C 817.262,201.404 816.262,202.738 814.5,203.5C 814.738,201.596 815.738,200.262 817.5,199.5 Z"/></g>
<g><path style="opacity:0.408" fill="#cb1f24" d="M 455.5,201.5 C 455.573,203.027 454.906,204.027 453.5,204.5C 453.427,202.973 454.094,201.973 455.5,201.5 Z"/></g>
<g><path style="opacity:0.364" fill="#cb1f24" d="M 1152.5,202.5 C 1153.91,202.973 1154.57,203.973 1154.5,205.5C 1153.09,205.027 1152.43,204.027 1152.5,202.5 Z"/></g>
<g><path style="opacity:0.408" fill="#cb1f24" d="M 453.5,204.5 C 453.573,206.027 452.906,207.027 451.5,207.5C 451.427,205.973 452.094,204.973 453.5,204.5 Z"/></g>
<g><path style="opacity:0.408" fill="#cb1f24" d="M 523.5,204.5 C 523.573,206.027 522.906,207.027 521.5,207.5C 521.427,205.973 522.094,204.973 523.5,204.5 Z"/></g>
<g><path style="opacity:0.364" fill="#cb1f24" d="M 1083.5,204.5 C 1084.91,204.973 1085.57,205.973 1085.5,207.5C 1084.09,207.027 1083.43,206.027 1083.5,204.5 Z"/></g>
<g><path style="opacity:0.408" fill="#cb1f24" d="M 1154.5,205.5 C 1155.91,205.973 1156.57,206.973 1156.5,208.5C 1155.09,208.027 1154.43,207.027 1154.5,205.5 Z"/></g>
<g><path style="opacity:0.408" fill="#cb1f24" d="M 451.5,207.5 C 451.573,209.027 450.906,210.027 449.5,210.5C 449.427,208.973 450.094,207.973 451.5,207.5 Z"/></g>
<g><path style="opacity:0.315" fill="#cb1f24" d="M 521.5,207.5 C 521.262,209.404 520.262,210.738 518.5,211.5C 518.738,209.596 519.738,208.262 521.5,207.5 Z"/></g>
<g><path style="opacity:0.408" fill="#cb1f24" d="M 1156.5,208.5 C 1157.91,208.973 1158.57,209.973 1158.5,211.5C 1157.09,211.027 1156.43,210.027 1156.5,208.5 Z"/></g>
<g><path style="opacity:0.456" fill="#cb1f24" d="M 1087.5,209.5 C 1088.91,209.973 1089.57,210.973 1089.5,212.5C 1088.09,212.027 1087.43,211.027 1087.5,209.5 Z"/></g>
<g><path style="opacity:0.389" fill="#cb1f24" d="M 896.5,210.5 C 900.58,225.22 903.913,240.22 906.5,255.5C 902.407,240.783 899.074,225.783 896.5,210.5 Z"/></g>
<g><path style="opacity:0.408" fill="#cb1f24" d="M 1158.5,211.5 C 1159.91,211.973 1160.57,212.973 1160.5,214.5C 1159.09,214.027 1158.43,213.027 1158.5,211.5 Z"/></g>
<g><path style="opacity:0.364" fill="#cb1f24" d="M 517.5,212.5 C 517.573,214.027 516.906,215.027 515.5,215.5C 515.427,213.973 516.094,212.973 517.5,212.5 Z"/></g>
<g><path style="opacity:0.408" fill="#cb1f24" d="M 447.5,213.5 C 447.573,215.027 446.906,216.027 445.5,216.5C 445.427,214.973 446.094,213.973 447.5,213.5 Z"/></g>
<g><path style="opacity:0.364" fill="#cb1f24" d="M 806.5,213.5 C 806.573,215.027 805.906,216.027 804.5,216.5C 804.427,214.973 805.094,213.973 806.5,213.5 Z"/></g>
<g><path style="opacity:0.408" fill="#cb1f24" d="M 1090.5,213.5 C 1091.91,213.973 1092.57,214.973 1092.5,216.5C 1091.09,216.027 1090.43,215.027 1090.5,213.5 Z"/></g>
<g><path style="opacity:0.408" fill="#cb1f24" d="M 1160.5,214.5 C 1161.91,214.973 1162.57,215.973 1162.5,217.5C 1161.09,217.027 1160.43,216.027 1160.5,214.5 Z"/></g>
<g><path style="opacity:0.315" fill="#cb1f24" d="M 445.5,216.5 C 445.573,218.027 444.906,219.027 443.5,219.5C 443.427,217.973 444.094,216.973 445.5,216.5 Z"/></g>
<g><path style="opacity:0.408" fill="#cb1f24" d="M 803.5,217.5 C 803.573,219.027 802.906,220.027 801.5,220.5C 801.427,218.973 802.094,217.973 803.5,217.5 Z"/></g>
<g><path style="opacity:0.408" fill="#cb1f24" d="M 1093.5,217.5 C 1094.91,217.973 1095.57,218.973 1095.5,220.5C 1094.09,220.027 1093.43,219.027 1093.5,217.5 Z"/></g>
<g><path style="opacity:0.342" fill="#cb1f24" d="M 443.5,219.5 C 443.25,221.674 442.25,223.341 440.5,224.5C 440.75,222.326 441.75,220.659 443.5,219.5 Z"/></g>
<g><path style="opacity:0.456" fill="#cb1f24" d="M 511.5,220.5 C 511.573,222.027 510.906,223.027 509.5,223.5C 509.427,221.973 510.094,220.973 511.5,220.5 Z"/></g>
<g><path style="opacity:0.267" fill="#cb1f24" d="M 1095.5,220.5 C 1096.91,220.973 1097.57,221.973 1097.5,223.5C 1096.09,223.027 1095.43,222.027 1095.5,220.5 Z"/></g>
<g><path style="opacity:0.456" fill="#cb1f24" d="M 800.5,221.5 C 800.573,223.027 799.906,224.027 798.5,224.5C 798.427,222.973 799.094,221.973 800.5,221.5 Z"/></g>
<g><path style="opacity:0.408" fill="#cb1f24" d="M 509.5,223.5 C 509.573,225.027 508.906,226.027 507.5,226.5C 507.427,224.973 508.094,223.973 509.5,223.5 Z"/></g>
<g><path style="opacity:0.364" fill="#cb1f24" d="M 1098.5,224.5 C 1099.91,224.973 1100.57,225.973 1100.5,227.5C 1099.09,227.027 1098.43,226.027 1098.5,224.5 Z"/></g>
<g><path style="opacity:0.422" fill="#cb1f24" d="M 439.5,226.5 C 439.25,228.674 438.25,230.341 436.5,231.5C 436.75,229.326 437.75,227.659 439.5,226.5 Z"/></g>
<g><path style="opacity:0.408" fill="#cb1f24" d="M 507.5,226.5 C 507.573,228.027 506.906,229.027 505.5,229.5C 505.427,227.973 506.094,226.973 507.5,226.5 Z"/></g>
<g><path style="opacity:0.408" fill="#cb1f24" d="M 505.5,229.5 C 505.573,231.027 504.906,232.027 503.5,232.5C 503.427,230.973 504.094,229.973 505.5,229.5 Z"/></g>
<g><path style="opacity:0.364" fill="#cb1f24" d="M 793.5,230.5 C 793.573,232.027 792.906,233.027 791.5,233.5C 791.427,231.973 792.094,230.973 793.5,230.5 Z"/></g>
<g><path style="opacity:0.341" fill="#cb1f24" d="M 1170.5,230.5 C 1172.25,231.659 1173.25,233.326 1173.5,235.5C 1171.75,234.341 1170.75,232.674 1170.5,230.5 Z"/></g>
<g><path style="opacity:0.342" fill="#cb1f24" d="M 503.5,232.5 C 503.25,234.674 502.25,236.341 500.5,237.5C 500.75,235.326 501.75,233.659 503.5,232.5 Z"/></g>
<g><path style="opacity:0.457" fill="#cb1f24" d="M 435.5,233.5 C 435.573,235.027 434.906,236.027 433.5,236.5C 433.427,234.973 434.094,233.973 435.5,233.5 Z"/></g>
<g><path style="opacity:0.364" fill="#cb1f24" d="M 789.5,235.5 C 789.573,237.027 788.906,238.027 787.5,238.5C 787.427,236.973 788.094,235.973 789.5,235.5 Z"/></g>
<g><path style="opacity:0.386" fill="#cb1f24" d="M 1174.5,237.5 C 1176.92,240.008 1178.59,243.008 1179.5,246.5C 1177.08,243.992 1175.41,240.992 1174.5,237.5 Z"/></g>
<g><path style="opacity:0.364" fill="#cb1f24" d="M 786.5,239.5 C 786.573,241.027 785.906,242.027 784.5,242.5C 784.427,240.973 785.094,239.973 786.5,239.5 Z"/></g>
<g><path style="opacity:0.457" fill="#cb1f24" d="M 1108.5,239.5 C 1109.91,239.973 1110.57,240.973 1110.5,242.5C 1109.09,242.027 1108.43,241.027 1108.5,239.5 Z"/></g>
<g><path style="opacity:0.408" fill="#cb1f24" d="M 783.5,243.5 C 783.573,245.027 782.906,246.027 781.5,246.5C 781.427,244.973 782.094,243.973 783.5,243.5 Z"/></g>
<g><path style="opacity:0.315" fill="#cb1f24" d="M 1111.5,244.5 C 1113.59,246.336 1114.92,248.669 1115.5,251.5C 1113.41,249.664 1112.08,247.331 1111.5,244.5 Z"/></g>
<g><path style="opacity:0.456" fill="#cb1f24" d="M 780.5,247.5 C 780.573,249.027 779.906,250.027 778.5,250.5C 778.427,248.973 779.094,247.973 780.5,247.5 Z"/></g>
<g><path style="opacity:0.428" fill="#cb1f24" d="M 492.5,250.5 C 491.921,253.331 490.588,255.664 488.5,257.5C 489.079,254.669 490.412,252.336 492.5,250.5 Z"/></g>
<g><path style="opacity:0.359" fill="#cb1f24" d="M 1115.5,251.5 C 1116.91,251.973 1117.57,252.973 1117.5,254.5C 1116.09,254.027 1115.43,253.027 1115.5,251.5 Z"/></g>
<g><path style="opacity:0.348" fill="#cb1f24" d="M 773.5,256.5 C 773.262,258.404 772.262,259.738 770.5,260.5C 770.738,258.596 771.738,257.262 773.5,256.5 Z"/></g>
<g><path style="opacity:0.457" fill="#cb1f24" d="M 422.5,257.5 C 421.958,260.912 420.625,263.912 418.5,266.5C 419.042,263.088 420.375,260.088 422.5,257.5 Z"/></g>
<g><path style="opacity:0.409" fill="#cb1f24" d="M 770.5,260.5 C 770.262,262.404 769.262,263.738 767.5,264.5C 767.738,262.596 768.738,261.262 770.5,260.5 Z"/></g>
<g><path style="opacity:0.409" fill="#cb1f24" d="M 767.5,264.5 C 767.262,266.404 766.262,267.738 764.5,268.5C 764.738,266.596 765.738,265.262 767.5,264.5 Z"/></g>
<g><path style="opacity:0.456" fill="#cb1f24" d="M 763.5,269.5 C 763.573,271.027 762.906,272.027 761.5,272.5C 761.427,270.973 762.094,269.973 763.5,269.5 Z"/></g>
<g><path style="opacity:0.351" fill="#cb1f24" d="M 1125.5,269.5 C 1127.96,272.751 1129.62,276.418 1130.5,280.5C 1128.04,277.249 1126.38,273.582 1125.5,269.5 Z"/></g>
<g><path style="opacity:0.344" fill="#cb1f24" d="M 1191.5,270.5 C 1192.93,271.78 1193.6,273.447 1193.5,275.5C 1192.07,274.22 1191.4,272.553 1191.5,270.5 Z"/></g>
<g><path style="opacity:0.44" fill="#cb1f24" d="M 1193.5,275.5 C 1195.29,277.426 1196.29,279.759 1196.5,282.5C 1194.71,280.574 1193.71,278.241 1193.5,275.5 Z"/></g>
<g><path style="opacity:0.291" fill="#cb1f24" d="M 1130.5,280.5 C 1132.01,282.181 1133.01,284.181 1133.5,286.5C 1131.46,285.089 1130.46,283.089 1130.5,280.5 Z"/></g>
<g><path style="opacity:0.503" fill="#cb1f24" d="M 476.5,281.5 C 476.598,283.553 475.931,285.22 474.5,286.5C 474.402,284.447 475.069,282.78 476.5,281.5 Z"/></g>
<g><path style="opacity:0.333" fill="#cb1f24" d="M 411.5,282.5 C 409.871,287.735 407.871,292.735 405.5,297.5C 406.352,291.923 408.352,286.923 411.5,282.5 Z"/></g>
<g><path style="opacity:0.377" fill="#cb1f24" d="M 753.5,282.5 C 753.262,284.404 752.262,285.738 750.5,286.5C 750.738,284.596 751.738,283.262 753.5,282.5 Z"/></g>
<g><path style="opacity:0.384" fill="#cb1f24" d="M 912.5,282.5 C 916.962,296.793 920.295,311.46 922.5,326.5C 918.548,312.09 915.215,297.423 912.5,282.5 Z"/></g>
<g><path style="opacity:0.471" fill="#cb1f24" d="M 1196.5,282.5 C 1197.93,283.78 1198.6,285.447 1198.5,287.5C 1197.07,286.22 1196.4,284.553 1196.5,282.5 Z"/></g>
<g><path style="opacity:0.4" fill="#cb1f24" d="M 474.5,286.5 C 473.737,290.137 472.403,293.47 470.5,296.5C 470.872,292.703 472.206,289.37 474.5,286.5 Z"/></g>
<g><path style="opacity:0.409" fill="#cb1f24" d="M 750.5,286.5 C 750.262,288.404 749.262,289.738 747.5,290.5C 747.738,288.596 748.738,287.262 750.5,286.5 Z"/></g>
<g><path style="opacity:0.408" fill="#cb1f24" d="M 746.5,291.5 C 746.573,293.027 745.906,294.027 744.5,294.5C 744.427,292.973 745.094,291.973 746.5,291.5 Z"/></g>
<g><path style="opacity:0.408" fill="#cb1f24" d="M 743.5,295.5 C 743.573,297.027 742.906,298.027 741.5,298.5C 741.427,296.973 742.094,295.973 743.5,295.5 Z"/></g>
<g><path style="opacity:0.351" fill="#cb1f24" d="M 470.5,296.5 C 470.267,299.542 469.267,302.208 467.5,304.5C 467.733,301.458 468.733,298.792 470.5,296.5 Z"/></g>
<g><path style="opacity:0.397" fill="#cb1f24" d="M 405.5,297.5 C 404.602,302.534 402.935,307.201 400.5,311.5C 401.398,306.466 403.065,301.799 405.5,297.5 Z"/></g>
<g><path style="opacity:0.503" fill="#cb1f24" d="M 1139.5,301.5 C 1140.93,302.78 1141.6,304.447 1141.5,306.5C 1140.07,305.22 1139.4,303.553 1139.5,301.5 Z"/></g>
<g><path style="opacity:0.348" fill="#cb1f24" d="M 467.5,304.5 C 467.598,306.553 466.931,308.22 465.5,309.5C 465.402,307.447 466.069,305.78 467.5,304.5 Z"/></g>
<g><path style="opacity:0.344" fill="#cb1f24" d="M 736.5,304.5 C 736.262,306.404 735.262,307.738 733.5,308.5C 733.738,306.596 734.738,305.262 736.5,304.5 Z"/></g>
<g><path style="opacity:0.279" fill="#cb1f24" d="M 1205.5,305.5 C 1207.47,308.084 1208.47,311.084 1208.5,314.5C 1206.93,311.785 1205.93,308.785 1205.5,305.5 Z"/></g>
<g><path style="opacity:0.456" fill="#cb1f24" d="M 733.5,308.5 C 733.573,310.027 732.906,311.027 731.5,311.5C 731.427,309.973 732.094,308.973 733.5,308.5 Z"/></g>
<g><path style="opacity:0.456" fill="#cb1f24" d="M 730.5,312.5 C 730.573,314.027 729.906,315.027 728.5,315.5C 728.427,313.973 729.094,312.973 730.5,312.5 Z"/></g>
<g><path style="opacity:0.403" fill="#cb1f24" d="M 1208.5,314.5 C 1211.15,319.782 1212.81,325.448 1213.5,331.5C 1211.26,326.1 1209.59,320.433 1208.5,314.5 Z"/></g>
<g><path style="opacity:0.333" fill="#cb1f24" d="M 1144.5,315.5 C 1147.41,322.891 1149.74,330.558 1151.5,338.5C 1148.19,331.234 1145.86,323.567 1144.5,315.5 Z"/></g>
<g><path style="opacity:0.408" fill="#cb1f24" d="M 726.5,317.5 C 726.573,319.027 725.906,320.027 724.5,320.5C 724.427,318.973 725.094,317.973 726.5,317.5 Z"/></g>
<g><path style="opacity:0.38" fill="#cb1f24" d="M 723.5,321.5 C 723.262,323.404 722.262,324.738 720.5,325.5C 720.738,323.596 721.738,322.262 723.5,321.5 Z"/></g>
<g><path style="opacity:0.364" fill="#cb1f24" d="M 719.5,326.5 C 719.573,328.027 718.906,329.027 717.5,329.5C 717.427,327.973 718.094,326.973 719.5,326.5 Z"/></g>
<g><path style="opacity:0.478" fill="#cb1f24" d="M 459.5,328.5 C 459.59,331.152 458.924,333.485 457.5,335.5C 457.41,332.848 458.076,330.515 459.5,328.5 Z"/></g>
<g><path style="opacity:0.315" fill="#cb1f24" d="M 716.5,330.5 C 716.262,332.404 715.262,333.738 713.5,334.5C 713.738,332.596 714.738,331.262 716.5,330.5 Z"/></g>
<g><path style="opacity:0.473" fill="#cb1f24" d="M 1213.5,331.5 C 1215.26,334.854 1216.26,338.521 1216.5,342.5C 1214.74,339.146 1213.74,335.479 1213.5,331.5 Z"/></g>
<g><path style="opacity:0.456" fill="#cb1f24" d="M 713.5,334.5 C 713.573,336.027 712.906,337.027 711.5,337.5C 711.427,335.973 712.094,334.973 713.5,334.5 Z"/></g>
<g><path style="opacity:0.394" fill="#cb1f24" d="M 393.5,335.5 C 389.886,352.57 386.552,369.57 383.5,386.5C 384.805,368.982 388.139,351.982 393.5,335.5 Z"/></g>
<g><path style="opacity:0.363" fill="#cb1f24" d="M 457.5,335.5 C 454.346,351.928 451.346,368.261 448.5,384.5C 449.685,367.71 452.685,351.376 457.5,335.5 Z"/></g>
<g><path style="opacity:0.364" fill="#cb1f24" d="M 706.5,343.5 C 706.573,345.027 705.906,346.027 704.5,346.5C 704.427,344.973 705.094,343.973 706.5,343.5 Z"/></g>
<g><path style="opacity:0.377" fill="#cb1f24" d="M 703.5,347.5 C 703.262,349.404 702.262,350.738 700.5,351.5C 700.738,349.596 701.738,348.262 703.5,347.5 Z"/></g>
<g><path style="opacity:0.364" fill="#cb1f24" d="M 699.5,352.5 C 699.573,354.027 698.906,355.027 697.5,355.5C 697.427,353.973 698.094,352.973 699.5,352.5 Z"/></g>
<g><path style="opacity:0.408" fill="#cb1f24" d="M 696.5,356.5 C 696.573,358.027 695.906,359.027 694.5,359.5C 694.427,357.973 695.094,356.973 696.5,356.5 Z"/></g>
<g><path style="opacity:0.369" fill="#cb1f24" d="M 929.5,357.5 C 933.75,371.842 937.083,386.508 939.5,401.5C 935.566,387.086 932.232,372.419 929.5,357.5 Z"/></g>
<g><path style="opacity:0.456" fill="#cb1f24" d="M 693.5,360.5 C 693.573,362.027 692.906,363.027 691.5,363.5C 691.427,361.973 692.094,360.973 693.5,360.5 Z"/></g>
<g><path style="opacity:0.424" fill="#cb1f24" d="M 1157.5,367.5 C 1161.2,386.175 1162.86,405.175 1162.5,424.5C 1162.91,445.547 1160.91,466.213 1156.5,486.5C 1162.74,446.886 1163.08,407.219 1157.5,367.5 Z"/></g>
<g><path style="opacity:0.344" fill="#cb1f24" d="M 686.5,369.5 C 686.262,371.404 685.262,372.738 683.5,373.5C 683.738,371.596 684.738,370.262 686.5,369.5 Z"/></g>
<g><path style="opacity:0.387" fill="#cb1f24" d="M 1222.5,370.5 C 1224.29,375.904 1225.46,381.57 1226,387.5C 1227.89,402.115 1229.06,416.782 1229.5,431.5C 1227.51,411.274 1225.18,390.94 1222.5,370.5 Z"/></g>
<g><path style="opacity:0.439" fill="#cb1f24" d="M 683.5,373.5 C 683.262,375.404 682.262,376.738 680.5,377.5C 680.738,375.596 681.738,374.262 683.5,373.5 Z"/></g>
<g><path style="opacity:0.364" fill="#cb1f24" d="M 679.5,378.5 C 679.573,380.027 678.906,381.027 677.5,381.5C 677.427,379.973 678.094,378.973 679.5,378.5 Z"/></g>
<g><path style="opacity:0.408" fill="#cb1f24" d="M 676.5,382.5 C 676.573,384.027 675.906,385.027 674.5,385.5C 674.427,383.973 675.094,382.973 676.5,382.5 Z"/></g>
<g><path style="opacity:0.456" fill="#cb1f24" d="M 673.5,386.5 C 673.573,388.027 672.906,389.027 671.5,389.5C 671.427,387.973 672.094,386.973 673.5,386.5 Z"/></g>
<g><path style="opacity:0.315" fill="#cb1f24" d="M 669.5,391.5 C 669.262,393.404 668.262,394.738 666.5,395.5C 666.738,393.596 667.738,392.262 669.5,391.5 Z"/></g>
<g><path style="opacity:0.344" fill="#cb1f24" d="M 666.5,395.5 C 666.262,397.404 665.262,398.738 663.5,399.5C 663.738,397.596 664.738,396.262 666.5,395.5 Z"/></g>
<g><path style="opacity:0.388" fill="#cb1f24" d="M 663.5,399.5 C 759.857,422.575 856.524,444.909 953.5,466.5C 950.911,455.22 948.577,443.887 946.5,432.5C 950.167,443.822 952.834,455.488 954.5,467.5C 858.071,446.114 761.404,424.28 664.5,402C 662.641,401.399 662.308,400.566 663.5,399.5 Z"/></g>
<g><path style="opacity:0.465" fill="#cb1f24" d="M 939.5,401.5 C 940.913,404.219 941.58,407.219 941.5,410.5C 940.087,407.781 939.42,404.781 939.5,401.5 Z"/></g>
<g><path style="opacity:0.381" fill="#cb1f24" d="M 1229.5,457.5 C 1229.07,478.851 1226.73,499.851 1222.5,520.5C 1225.14,499.387 1227.48,478.387 1229.5,457.5 Z"/></g>
<g><path style="opacity:0.359" fill="#cb1f24" d="M 448.5,461.5 C 451.384,479.458 454.718,497.458 458.5,515.5C 453.029,498.019 449.695,480.019 448.5,461.5 Z"/></g>
<g><path style="opacity:0.129" fill="#cb1f23" d="M 954.5,467.5 C 955.833,468.167 955.833,468.167 954.5,467.5 Z"/></g>
<g><path style="opacity:0.412" fill="#cb1f24" d="M 382.5,495.5 C 385.834,516.173 389.834,536.84 394.5,557.5C 388.149,537.415 384.149,516.748 382.5,495.5 Z"/></g>
<g><path style="opacity:0.373" fill="#cb1f24" d="M 1150.5,513.5 C 1148.39,524.645 1145.05,535.312 1140.5,545.5C 1143.54,534.641 1146.88,523.974 1150.5,513.5 Z"/></g>
<g><path style="opacity:0.352" fill="#cb1f24" d="M 465.5,538.5 C 467.267,540.792 468.267,543.458 468.5,546.5C 466.733,544.208 465.733,541.542 465.5,538.5 Z"/></g>
<g><path style="opacity:0.351" fill="#cb1f24" d="M 468.5,546.5 C 470.267,548.792 471.267,551.458 471.5,554.5C 469.733,552.208 468.733,549.542 468.5,546.5 Z"/></g>
<g><path style="opacity:0.502" fill="#cb1f24" d="M 1215.5,551.5 C 1215.43,554.428 1214.77,557.095 1213.5,559.5C 1213.29,556.505 1213.96,553.838 1215.5,551.5 Z"/></g>
<g><path style="opacity:0.377" fill="#cb1f24" d="M 471.5,554.5 C 472.931,555.78 473.598,557.447 473.5,559.5C 472.069,558.22 471.402,556.553 471.5,554.5 Z"/></g>
<g><path style="opacity:0.409" fill="#cb1f24" d="M 473.5,559.5 C 474.931,560.78 475.598,562.447 475.5,564.5C 474.069,563.22 473.402,561.553 473.5,559.5 Z"/></g>
<g><path style="opacity:0.396" fill="#cb1f24" d="M 1213.5,559.5 C 1212.41,566.535 1210.41,573.201 1207.5,579.5C 1208.9,572.557 1210.9,565.891 1213.5,559.5 Z"/></g>
<g><path style="opacity:0.315" fill="#cb1f24" d="M 1134.5,561.5 C 1134.01,563.819 1133.01,565.819 1131.5,567.5C 1131.46,564.911 1132.46,562.911 1134.5,561.5 Z"/></g>
<g><path style="opacity:0.355" fill="#cb1f24" d="M 1131.5,567.5 C 1131.29,570.241 1130.29,572.574 1128.5,574.5C 1128.71,571.759 1129.71,569.426 1131.5,567.5 Z"/></g>
<g><path style="opacity:0.408" fill="#cb1f24" d="M 401.5,580.5 C 404.269,585.801 406.269,591.468 407.5,597.5C 404.731,592.199 402.731,586.532 401.5,580.5 Z"/></g>
<g><path style="opacity:0.389" fill="#cb1f24" d="M 488.5,591.5 C 490.588,593.336 491.921,595.669 492.5,598.5C 490.412,596.664 489.079,594.331 488.5,591.5 Z"/></g>
<g><path style="opacity:0.314" fill="#cb1f24" d="M 407.5,597.5 C 409.403,600.53 410.737,603.863 411.5,607.5C 409.206,604.63 407.872,601.297 407.5,597.5 Z"/></g>
<g><path style="opacity:0.408" fill="#cb1f24" d="M 1114.5,601.5 C 1114.57,603.027 1113.91,604.027 1112.5,604.5C 1112.43,602.973 1113.09,601.973 1114.5,601.5 Z"/></g>
<g><path style="opacity:0.471" fill="#cb1f24" d="M 1198.5,603.5 C 1198.6,605.553 1197.93,607.22 1196.5,608.5C 1196.4,606.447 1197.07,604.78 1198.5,603.5 Z"/></g>
<g><path style="opacity:0.408" fill="#cb1f24" d="M 1111.5,606.5 C 1111.57,608.027 1110.91,609.027 1109.5,609.5C 1109.43,607.973 1110.09,606.973 1111.5,606.5 Z"/></g>
<g><path style="opacity:0.409" fill="#cb1f24" d="M 1196.5,608.5 C 1196.6,610.553 1195.93,612.22 1194.5,613.5C 1194.4,611.447 1195.07,609.78 1196.5,608.5 Z"/></g>
<g><path style="opacity:0.408" fill="#cb1f24" d="M 499.5,610.5 C 500.906,610.973 501.573,611.973 501.5,613.5C 500.094,613.027 499.427,612.027 499.5,610.5 Z"/></g>
<g><path style="opacity:0.457" fill="#cb1f24" d="M 1108.5,611.5 C 1108.57,613.027 1107.91,614.027 1106.5,614.5C 1106.43,612.973 1107.09,611.973 1108.5,611.5 Z"/></g>
<g><path style="opacity:0.315" fill="#cb1f24" d="M 501.5,613.5 C 502.906,613.973 503.573,614.973 503.5,616.5C 502.094,616.027 501.427,615.027 501.5,613.5 Z"/></g>
<g><path style="opacity:0.344" fill="#cb1f24" d="M 1193.5,615.5 C 1193.6,617.553 1192.93,619.22 1191.5,620.5C 1191.4,618.447 1192.07,616.78 1193.5,615.5 Z"/></g>
<g><path style="opacity:0.315" fill="#cb1f24" d="M 503.5,616.5 C 504.906,616.973 505.573,617.973 505.5,619.5C 504.094,619.027 503.427,618.027 503.5,616.5 Z"/></g>
<g><path style="opacity:0.461" fill="#cb1f24" d="M 416.5,618.5 C 418.293,620.426 419.293,622.759 419.5,625.5C 417.707,623.574 416.707,621.241 416.5,618.5 Z"/></g>
<g><path style="opacity:0.364" fill="#cb1f24" d="M 1100.5,623.5 C 1100.57,625.027 1099.91,626.027 1098.5,626.5C 1098.43,624.973 1099.09,623.973 1100.5,623.5 Z"/></g>
<g><path style="opacity:0.505" fill="#cb1f24" d="M 508.5,624.5 C 509.906,624.973 510.573,625.973 510.5,627.5C 509.094,627.027 508.427,626.027 508.5,624.5 Z"/></g>
<g><path style="opacity:0.344" fill="#cb1f24" d="M 1098.5,626.5 C 1098.26,628.404 1097.26,629.738 1095.5,630.5C 1095.74,628.596 1096.74,627.262 1098.5,626.5 Z"/></g>
<g><path style="opacity:0.352" fill="#cb1f24" d="M 421.5,629.5 C 424.341,633.849 426.674,638.516 428.5,643.5C 425.126,639.419 422.793,634.753 421.5,629.5 Z"/></g>
<g><path style="opacity:0.364" fill="#cb1f24" d="M 1095.5,630.5 C 1095.57,632.027 1094.91,633.027 1093.5,633.5C 1093.43,631.973 1094.09,630.973 1095.5,630.5 Z"/></g>
<g><path style="opacity:0.364" fill="#cb1f24" d="M 514.5,632.5 C 515.906,632.973 516.573,633.973 516.5,635.5C 515.094,635.027 514.427,634.027 514.5,632.5 Z"/></g>
<g><path style="opacity:0.456" fill="#cb1f24" d="M 1093.5,633.5 C 1093.57,635.027 1092.91,636.027 1091.5,636.5C 1091.43,634.973 1092.09,633.973 1093.5,633.5 Z"/></g>
<g><path style="opacity:0.409" fill="#cb1f24" d="M 516.5,635.5 C 518.262,636.262 519.262,637.596 519.5,639.5C 517.738,638.738 516.738,637.404 516.5,635.5 Z"/></g>
<g><path style="opacity:0.456" fill="#cb1f24" d="M 1090.5,637.5 C 1090.57,639.027 1089.91,640.027 1088.5,640.5C 1088.43,638.973 1089.09,637.973 1090.5,637.5 Z"/></g>
<g><path style="opacity:0.364" fill="#cb1f24" d="M 520.5,640.5 C 521.906,640.973 522.573,641.973 522.5,643.5C 521.094,643.027 520.427,642.027 520.5,640.5 Z"/></g>
<g><path style="opacity:0.409" fill="#cb1f24" d="M 523.5,644.5 C 525.262,645.262 526.262,646.596 526.5,648.5C 524.738,647.738 523.738,646.404 523.5,644.5 Z"/></g>
<g><path style="opacity:0.348" fill="#cb1f24" d="M 1082.5,647.5 C 1082.26,649.404 1081.26,650.738 1079.5,651.5C 1079.74,649.596 1080.74,648.262 1082.5,647.5 Z"/></g>
<g><path style="opacity:0.352" fill="#cb1f24" d="M 1177.5,648.5 C 1176.92,651.331 1175.59,653.664 1173.5,655.5C 1174.08,652.669 1175.41,650.336 1177.5,648.5 Z"/></g>
<g><path style="opacity:0.412" fill="#cb1f24" d="M 528.5,650.5 C 529.906,650.973 530.573,651.973 530.5,653.5C 529.094,653.027 528.427,652.027 528.5,650.5 Z"/></g>
<g><path style="opacity:0.386" fill="#cb1f24" d="M 1078.5,652.5 C 1077.92,654.749 1076.59,656.415 1074.5,657.5C 1075.08,655.251 1076.41,653.585 1078.5,652.5 Z"/></g>
<g><path style="opacity:0.422" fill="#cb1f24" d="M 434.5,654.5 C 436.25,655.659 437.25,657.326 437.5,659.5C 435.75,658.341 434.75,656.674 434.5,654.5 Z"/></g>
<g><path style="opacity:0.364" fill="#cb1f24" d="M 534.5,657.5 C 536.587,658.585 537.92,660.251 538.5,662.5C 536.413,661.415 535.08,659.749 534.5,657.5 Z"/></g>
<g><path style="opacity:0.359" fill="#cb1f24" d="M 1172.5,657.5 C 1172.57,659.027 1171.91,660.027 1170.5,660.5C 1170.43,658.973 1171.09,657.973 1172.5,657.5 Z"/></g>
<g><path style="opacity:0.434" fill="#cb1f24" d="M 1072.5,659.5 C 1071.92,661.749 1070.59,663.415 1068.5,664.5C 1069.08,662.251 1070.41,660.585 1072.5,659.5 Z"/></g>
<g><path style="opacity:0.369" fill="#cb1f24" d="M 438.5,661.5 C 440.25,662.659 441.25,664.326 441.5,666.5C 439.75,665.341 438.75,663.674 438.5,661.5 Z"/></g>
<g><path style="opacity:0.408" fill="#cb1f24" d="M 441.5,666.5 C 442.906,666.973 443.573,667.973 443.5,669.5C 442.094,669.027 441.427,668.027 441.5,666.5 Z"/></g>
<g><path style="opacity:0.426" fill="#cb1f24" d="M 542.5,666.5 C 543.833,667.167 544.833,668.167 545.5,669.5C 543.5,669.5 542.5,668.5 542.5,666.5 Z"/></g>
<g><path style="opacity:0.408" fill="#cb1f24" d="M 545.5,669.5 C 550.5,673.833 555.167,678.5 559.5,683.5C 553.833,679.833 549.167,675.167 545.5,669.5 Z"/></g>
<g><path style="opacity:0.408" fill="#cb1f24" d="M 1164.5,670.5 C 1164.57,672.027 1163.91,673.027 1162.5,673.5C 1162.43,671.973 1163.09,670.973 1164.5,670.5 Z"/></g>
<g><path style="opacity:0.359" fill="#cb1f24" d="M 1159.5,678.5 C 1159.57,680.027 1158.91,681.027 1157.5,681.5C 1157.43,679.973 1158.09,678.973 1159.5,678.5 Z"/></g>
<g><path style="opacity:0.408" fill="#cb1f24" d="M 450.5,680.5 C 451.906,680.973 452.573,681.973 452.5,683.5C 451.094,683.027 450.427,682.027 450.5,680.5 Z"/></g>
<g><path style="opacity:0.315" fill="#cb1f24" d="M 1157.5,681.5 C 1157.57,683.027 1156.91,684.027 1155.5,684.5C 1155.43,682.973 1156.09,681.973 1157.5,681.5 Z"/></g>
<g><path style="opacity:0.408" fill="#cb1f24" d="M 452.5,683.5 C 453.906,683.973 454.573,684.973 454.5,686.5C 453.094,686.027 452.427,685.027 452.5,683.5 Z"/></g>
<g><path style="opacity:0.409" fill="#cb1f24" d="M 1048.5,684.5 C 1046.76,687.243 1044.43,689.243 1041.5,690.5C 1043.24,687.757 1045.57,685.757 1048.5,684.5 Z"/></g>
<g><path style="opacity:0.315" fill="#cb1f24" d="M 1155.5,684.5 C 1155.57,686.027 1154.91,687.027 1153.5,687.5C 1153.43,685.973 1154.09,684.973 1155.5,684.5 Z"/></g>
<g><path style="opacity:0.315" fill="#cb1f24" d="M 454.5,686.5 C 455.906,686.973 456.573,687.973 456.5,689.5C 455.094,689.027 454.427,688.027 454.5,686.5 Z"/></g>
<g><path style="opacity:0.364" fill="#cb1f24" d="M 564.5,688.5 C 566.749,689.08 568.415,690.413 569.5,692.5C 567.251,691.92 565.585,690.587 564.5,688.5 Z"/></g>
<g><path style="opacity:0.344" fill="#cb1f24" d="M 456.5,689.5 C 458.262,690.262 459.262,691.596 459.5,693.5C 457.738,692.738 456.738,691.404 456.5,689.5 Z"/></g>
<g><path style="opacity:0.364" fill="#cb1f24" d="M 459.5,693.5 C 460.906,693.973 461.573,694.973 461.5,696.5C 460.094,696.027 459.427,695.027 459.5,693.5 Z"/></g>
<g><path style="opacity:0.441" fill="#cb1f24" d="M 1037.5,694.5 C 1036.74,696.262 1035.4,697.262 1033.5,697.5C 1034.26,695.738 1035.6,694.738 1037.5,694.5 Z"/></g>
<g><path style="opacity:0.432" fill="#cb1f24" d="M 572.5,695.5 C 574.749,696.08 576.415,697.413 577.5,699.5C 575.251,698.92 573.585,697.587 572.5,695.5 Z"/></g>
<g><path style="opacity:0.408" fill="#cb1f24" d="M 1147.5,695.5 C 1147.57,697.027 1146.91,698.027 1145.5,698.5C 1145.43,696.973 1146.09,695.973 1147.5,695.5 Z"/></g>
<g><path style="opacity:0.364" fill="#cb1f24" d="M 462.5,697.5 C 463.906,697.973 464.573,698.973 464.5,700.5C 463.094,700.027 462.427,699.027 462.5,697.5 Z"/></g>
<g><path style="opacity:0.409" fill="#cb1f24" d="M 1032.5,698.5 C 1031.74,700.262 1030.4,701.262 1028.5,701.5C 1029.26,699.738 1030.6,698.738 1032.5,698.5 Z"/></g>
<g><path style="opacity:0.408" fill="#cb1f24" d="M 1144.5,699.5 C 1144.57,701.027 1143.91,702.027 1142.5,702.5C 1142.43,700.973 1143.09,699.973 1144.5,699.5 Z"/></g>
<g><path style="opacity:0.439" fill="#cb1f24" d="M 578.5,700.5 C 580.404,700.738 581.738,701.738 582.5,703.5C 580.596,703.262 579.262,702.262 578.5,700.5 Z"/></g>
<g><path style="opacity:0.409" fill="#cb1f24" d="M 1027.5,702.5 C 1026.74,704.262 1025.4,705.262 1023.5,705.5C 1024.26,703.738 1025.6,702.738 1027.5,702.5 Z"/></g>
<g><path style="opacity:0.344" fill="#cb1f24" d="M 582.5,703.5 C 584.404,703.738 585.738,704.738 586.5,706.5C 584.596,706.262 583.262,705.262 582.5,703.5 Z"/></g>
<g><path style="opacity:0.364" fill="#cb1f24" d="M 1141.5,703.5 C 1141.57,705.027 1140.91,706.027 1139.5,706.5C 1139.43,704.973 1140.09,703.973 1141.5,703.5 Z"/></g>
<g><path style="opacity:0.348" fill="#cb1f24" d="M 1023.5,705.5 C 1022.74,707.262 1021.4,708.262 1019.5,708.5C 1020.26,706.738 1021.6,705.738 1023.5,705.5 Z"/></g>
<g><path style="opacity:0.408" fill="#cb1f24" d="M 469.5,706.5 C 470.906,706.973 471.573,707.973 471.5,709.5C 470.094,709.027 469.427,708.027 469.5,706.5 Z"/></g>
<g><path style="opacity:0.364" fill="#cb1f24" d="M 587.5,707.5 C 589.027,707.427 590.027,708.094 590.5,709.5C 588.973,709.573 587.973,708.906 587.5,707.5 Z"/></g>
<g><path style="opacity:0.348" fill="#cb1f24" d="M 1138.5,707.5 C 1138.26,709.404 1137.26,710.738 1135.5,711.5C 1135.74,709.596 1136.74,708.262 1138.5,707.5 Z"/></g>
<g><path style="opacity:0.364" fill="#cb1f24" d="M 1018.5,709.5 C 1018.03,710.906 1017.03,711.573 1015.5,711.5C 1015.97,710.094 1016.97,709.427 1018.5,709.5 Z"/></g>
<g><path style="opacity:0.377" fill="#cb1f24" d="M 472.5,710.5 C 474.262,711.262 475.262,712.596 475.5,714.5C 473.738,713.738 472.738,712.404 472.5,710.5 Z"/></g>
<g><path style="opacity:0.408" fill="#cb1f24" d="M 591.5,710.5 C 593.027,710.427 594.027,711.094 594.5,712.5C 592.973,712.573 591.973,711.906 591.5,710.5 Z"/></g>
<g><path style="opacity:0.408" fill="#cb1f24" d="M 595.5,713.5 C 597.027,713.427 598.027,714.094 598.5,715.5C 596.973,715.573 595.973,714.906 595.5,713.5 Z"/></g>
<g><path style="opacity:0.364" fill="#cb1f24" d="M 1133.5,713.5 C 1133.57,715.027 1132.91,716.027 1131.5,716.5C 1131.43,714.973 1132.09,713.973 1133.5,713.5 Z"/></g>
<g><path style="opacity:0.408" fill="#cb1f24" d="M 1011.5,714.5 C 1011.03,715.906 1010.03,716.573 1008.5,716.5C 1008.97,715.094 1009.97,714.427 1011.5,714.5 Z"/></g>
<g><path style="opacity:0.386" fill="#cb1f24" d="M 476.5,715.5 C 478.587,716.585 479.92,718.251 480.5,720.5C 478.413,719.415 477.08,717.749 476.5,715.5 Z"/></g>
<g><path style="opacity:0.408" fill="#cb1f24" d="M 598.5,715.5 C 600.027,715.427 601.027,716.094 601.5,717.5C 599.973,717.573 598.973,716.906 598.5,715.5 Z"/></g>
<g><path style="opacity:0.408" fill="#cb1f24" d="M 1008.5,716.5 C 1008.03,717.906 1007.03,718.573 1005.5,718.5C 1005.97,717.094 1006.97,716.427 1008.5,716.5 Z"/></g>
<g><path style="opacity:0.44" fill="#cb1f24" d="M 601.5,717.5 C 603.853,718.34 605.853,719.674 607.5,721.5C 604.802,721.155 602.802,719.822 601.5,717.5 Z"/></g>
<g><path style="opacity:0.311" fill="#cb1f24" d="M 1005.5,718.5 C 1005.03,719.906 1004.03,720.573 1002.5,720.5C 1002.97,719.094 1003.97,718.427 1005.5,718.5 Z"/></g>
<g><path style="opacity:0.409" fill="#cb1f24" d="M 1128.5,719.5 C 1128.26,721.404 1127.26,722.738 1125.5,723.5C 1125.74,721.596 1126.74,720.262 1128.5,719.5 Z"/></g>
<g><path style="opacity:0.311" fill="#cb1f24" d="M 1002.5,720.5 C 1002.03,721.906 1001.03,722.573 999.5,722.5C 999.973,721.094 1000.97,720.427 1002.5,720.5 Z"/></g>
<g><path style="opacity:0.408" fill="#cb1f24" d="M 607.5,721.5 C 609.027,721.427 610.027,722.094 610.5,723.5C 608.973,723.573 607.973,722.906 607.5,721.5 Z"/></g>
<g><path style="opacity:0.359" fill="#cb1f24" d="M 999.5,722.5 C 999.027,723.906 998.027,724.573 996.5,724.5C 996.973,723.094 997.973,722.427 999.5,722.5 Z"/></g>
<g><path style="opacity:0.342" fill="#cb1f24" d="M 610.5,723.5 C 612.674,723.75 614.341,724.75 615.5,726.5C 613.326,726.25 611.659,725.25 610.5,723.5 Z"/></g>
<g><path style="opacity:0.441" fill="#cb1f24" d="M 484.5,724.5 C 486.262,725.262 487.262,726.596 487.5,728.5C 485.738,727.738 484.738,726.404 484.5,724.5 Z"/></g>
<g><path style="opacity:0.408" fill="#cb1f24" d="M 996.5,724.5 C 996.027,725.906 995.027,726.573 993.5,726.5C 993.973,725.094 994.973,724.427 996.5,724.5 Z"/></g>
<g><path style="opacity:0.354" fill="#cb1f24" d="M 1123.5,725.5 C 1122.58,728.089 1120.91,730.089 1118.5,731.5C 1119.42,728.911 1121.09,726.911 1123.5,725.5 Z"/></g>
<g><path style="opacity:0.457" fill="#cb1f24" d="M 988.5,729.5 C 988.027,730.906 987.027,731.573 985.5,731.5C 985.973,730.094 986.973,729.427 988.5,729.5 Z"/></g>
<g><path style="opacity:0.392" fill="#cb1f24" d="M 490.5,731.5 C 494.566,734.563 497.899,738.229 500.5,742.5C 496.434,739.437 493.101,735.771 490.5,731.5 Z"/></g>
<g><path style="opacity:0.422" fill="#cb1f24" d="M 623.5,731.5 C 625.674,731.75 627.341,732.75 628.5,734.5C 626.326,734.25 624.659,733.25 623.5,731.5 Z"/></g>
<g><path style="opacity:0.428" fill="#cb1f24" d="M 983.5,732.5 C 981.664,734.588 979.331,735.921 976.5,736.5C 978.336,734.412 980.669,733.079 983.5,732.5 Z"/></g>
<g><path style="opacity:0.382" fill="#cb1f24" d="M 630.5,735.5 C 636.65,737.74 642.316,740.74 647.5,744.5C 641.35,742.26 635.684,739.26 630.5,735.5 Z"/></g>
<g><path style="opacity:0.313" fill="#cb1f24" d="M 966.5,741.5 C 965.713,743.104 964.38,743.771 962.5,743.5C 963.514,742.326 964.847,741.66 966.5,741.5 Z"/></g>
<g><path style="opacity:0.327" fill="#cc1f24" d="M 1108.5,741.5 C 1106.5,745.5 1103.5,748.5 1099.5,750.5C 1102.17,747.167 1105.17,744.167 1108.5,741.5 Z"/></g>
<g><path style="opacity:0.456" fill="#cb1f24" d="M 505.5,747.5 C 509.1,749.43 512.1,752.097 514.5,755.5C 510.9,753.57 507.9,750.903 505.5,747.5 Z"/></g>
<g><path style="opacity:0.392" fill="#cb1f24" d="M 950.5,749.5 C 939.699,754.993 928.366,759.326 916.5,762.5C 927.614,757.792 938.947,753.459 950.5,749.5 Z"/></g>
<g><path style="opacity:0.376" fill="#cb1f24" d="M 660.5,750.5 C 670.464,753.596 680.131,757.262 689.5,761.5C 679.38,758.797 669.714,755.13 660.5,750.5 Z"/></g>
<g><path style="opacity:0.378" fill="#cb1f24" d="M 1091.5,758.5 C 1089.76,761.243 1087.43,763.243 1084.5,764.5C 1086.24,761.757 1088.57,759.757 1091.5,758.5 Z"/></g>
<g><path style="opacity:0.441" fill="#cb1f24" d="M 521.5,762.5 C 523.404,762.738 524.738,763.738 525.5,765.5C 523.596,765.262 522.262,764.262 521.5,762.5 Z"/></g>
<g><path style="opacity:0.478" fill="#cb1f24" d="M 701.5,765.5 C 704.152,765.41 706.485,766.076 708.5,767.5C 705.848,767.59 703.515,766.924 701.5,765.5 Z"/></g>
<g><path style="opacity:0.478" fill="#cb1f24" d="M 903.5,766.5 C 901.485,767.924 899.152,768.59 896.5,768.5C 898.515,767.076 900.848,766.41 903.5,766.5 Z"/></g>
<g><path style="opacity:0.38" fill="#cb1f24" d="M 1082.5,766.5 C 1081.74,768.262 1080.4,769.262 1078.5,769.5C 1079.26,767.738 1080.6,766.738 1082.5,766.5 Z"/></g>
<g><path style="opacity:0.407" fill="#cb1f24" d="M 527.5,767.5 C 529.754,768.124 531.421,769.457 532.5,771.5C 530.205,770.864 528.539,769.531 527.5,767.5 Z"/></g>
<g><path style="opacity:0.361" fill="#cb1f24" d="M 708.5,767.5 C 731.736,772.537 754.736,776.537 777.5,779.5C 753.906,778.18 730.906,774.18 708.5,767.5 Z"/></g>
<g><path style="opacity:0.35" fill="#cb1f24" d="M 896.5,768.5 C 875.054,774.741 853.054,778.408 830.5,779.5C 852.243,776.765 874.243,773.098 896.5,768.5 Z"/></g>
<g><path style="opacity:0.412" fill="#cb1f24" d="M 1075.5,772.5 C 1075.03,773.906 1074.03,774.573 1072.5,774.5C 1072.97,773.094 1073.97,772.427 1075.5,772.5 Z"/></g>
<g><path style="opacity:0.456" fill="#cb1f24" d="M 534.5,773.5 C 536.027,773.427 537.027,774.094 537.5,775.5C 535.973,775.573 534.973,774.906 534.5,773.5 Z"/></g>
<g><path style="opacity:0.412" fill="#cb1f24" d="M 1070.5,776.5 C 1070.03,777.906 1069.03,778.573 1067.5,778.5C 1067.97,777.094 1068.97,776.427 1070.5,776.5 Z"/></g>
<g><path style="opacity:0.364" fill="#cb1f24" d="M 540.5,778.5 C 542.027,778.427 543.027,779.094 543.5,780.5C 541.973,780.573 540.973,779.906 540.5,778.5 Z"/></g>
<g><path style="opacity:0.314" fill="#cb1f24" d="M 802.5,780.5 C 794.981,780.825 787.648,780.492 780.5,779.5C 780.435,779.062 780.601,778.728 781,778.5C 788.266,779.151 795.432,779.818 802.5,780.5 Z"/></g>
<g><path style="opacity:0.364" fill="#cb1f24" d="M 1065.5,780.5 C 1065.03,781.906 1064.03,782.573 1062.5,782.5C 1062.97,781.094 1063.97,780.427 1065.5,780.5 Z"/></g>
<g><path style="opacity:0.344" fill="#cb1f24" d="M 544.5,781.5 C 546.404,781.738 547.738,782.738 548.5,784.5C 546.596,784.262 545.262,783.262 544.5,781.5 Z"/></g>
<g><path style="opacity:0.348" fill="#cb1f24" d="M 1061.5,783.5 C 1060.74,785.262 1059.4,786.262 1057.5,786.5C 1058.26,784.738 1059.6,783.738 1061.5,783.5 Z"/></g>
<g><path style="opacity:0.374" fill="#cb1f24" d="M 548.5,784.5 C 550.404,784.738 551.738,785.738 552.5,787.5C 550.596,787.262 549.262,786.262 548.5,784.5 Z"/></g>
<g><path style="opacity:0.408" fill="#cb1f24" d="M 1057.5,786.5 C 1057.03,787.906 1056.03,788.573 1054.5,788.5C 1054.97,787.094 1055.97,786.427 1057.5,786.5 Z"/></g>
<g><path style="opacity:0.408" fill="#cb1f24" d="M 552.5,787.5 C 554.027,787.427 555.027,788.094 555.5,789.5C 553.973,789.573 552.973,788.906 552.5,787.5 Z"/></g>
<g><path style="opacity:0.364" fill="#cb1f24" d="M 1053.5,789.5 C 1053.03,790.906 1052.03,791.573 1050.5,791.5C 1050.97,790.094 1051.97,789.427 1053.5,789.5 Z"/></g>
<g><path style="opacity:0.364" fill="#cb1f24" d="M 556.5,790.5 C 558.027,790.427 559.027,791.094 559.5,792.5C 557.973,792.573 556.973,791.906 556.5,790.5 Z"/></g>
<g><path style="opacity:0.408" fill="#cb1f24" d="M 559.5,792.5 C 561.027,792.427 562.027,793.094 562.5,794.5C 560.973,794.573 559.973,793.906 559.5,792.5 Z"/></g>
<g><path style="opacity:0.267" fill="#cb1f24" d="M 569.5,799.5 C 571.027,799.427 572.027,800.094 572.5,801.5C 570.973,801.573 569.973,800.906 569.5,799.5 Z"/></g>
<g><path style="opacity:0.311" fill="#cb1f24" d="M 1037.5,800.5 C 1037.03,801.906 1036.03,802.573 1034.5,802.5C 1034.97,801.094 1035.97,800.427 1037.5,800.5 Z"/></g>
<g><path style="opacity:0.342" fill="#cb1f24" d="M 572.5,801.5 C 574.674,801.75 576.341,802.75 577.5,804.5C 575.326,804.25 573.659,803.25 572.5,801.5 Z"/></g>
<g><path style="opacity:0.408" fill="#cb1f24" d="M 1032.5,803.5 C 1032.03,804.906 1031.03,805.573 1029.5,805.5C 1029.97,804.094 1030.97,803.427 1032.5,803.5 Z"/></g>
<g><path style="opacity:0.408" fill="#cb1f24" d="M 577.5,804.5 C 579.027,804.427 580.027,805.094 580.5,806.5C 578.973,806.573 577.973,805.906 577.5,804.5 Z"/></g>
<g><path style="opacity:0.422" fill="#cb1f24" d="M 1029.5,805.5 C 1028.34,807.25 1026.67,808.25 1024.5,808.5C 1025.66,806.75 1027.33,805.75 1029.5,805.5 Z"/></g>
<g><path style="opacity:0.408" fill="#cb1f24" d="M 582.5,807.5 C 584.027,807.427 585.027,808.094 585.5,809.5C 583.973,809.573 582.973,808.906 582.5,807.5 Z"/></g>
<g><path style="opacity:0.408" fill="#cb1f24" d="M 1024.5,808.5 C 1024.03,809.906 1023.03,810.573 1021.5,810.5C 1021.97,809.094 1022.97,808.427 1024.5,808.5 Z"/></g>
<g><path style="opacity:0.366" fill="#cb1f24" d="M 1012.5,815.5 C 1011.34,817.25 1009.67,818.25 1007.5,818.5C 1008.66,816.75 1010.33,815.75 1012.5,815.5 Z"/></g>
<g><path style="opacity:0.397" fill="#cb1f24" d="M 599.5,817.5 C 605.65,819.74 611.316,822.74 616.5,826.5C 610.35,824.26 604.684,821.26 599.5,817.5 Z"/></g>
<g><path style="opacity:0.295" fill="#cb1f24" d="M 979.5,832.5 C 977.574,834.293 975.241,835.293 972.5,835.5C 974.426,833.707 976.759,832.707 979.5,832.5 Z"/></g>
<g><path style="opacity:0.334" fill="#cb1f24" d="M 631.5,833.5 C 634.241,833.707 636.574,834.707 638.5,836.5C 635.759,836.293 633.426,835.293 631.5,833.5 Z"/></g>
<g><path style="opacity:0.344" fill="#cb1f24" d="M 972.5,835.5 C 971.22,836.931 969.553,837.598 967.5,837.5C 968.78,836.069 970.447,835.402 972.5,835.5 Z"/></g>
<g><path style="opacity:0.374" fill="#cb1f24" d="M 638.5,836.5 C 640.553,836.402 642.22,837.069 643.5,838.5C 641.447,838.598 639.78,837.931 638.5,836.5 Z"/></g>
<g><path style="opacity:0.439" fill="#cb1f24" d="M 967.5,837.5 C 966.22,838.931 964.553,839.598 962.5,839.5C 963.78,838.069 965.447,837.402 967.5,837.5 Z"/></g>
<g><path style="opacity:0.409" fill="#cb1f24" d="M 643.5,838.5 C 645.553,838.402 647.22,839.069 648.5,840.5C 646.447,840.598 644.78,839.931 643.5,838.5 Z"/></g>
<g><path style="opacity:0.465" fill="#cb1f24" d="M 962.5,839.5 C 960.208,841.267 957.542,842.267 954.5,842.5C 956.792,840.733 959.458,839.733 962.5,839.5 Z"/></g>
<g><path style="opacity:0.439" fill="#cb1f24" d="M 651.5,841.5 C 653.553,841.402 655.22,842.069 656.5,843.5C 654.447,843.598 652.78,842.931 651.5,841.5 Z"/></g>
<g><path style="opacity:0.41" fill="#cb1f24" d="M 935.5,849.5 C 921.923,854.395 907.923,858.062 893.5,860.5C 907.322,856.543 921.322,852.877 935.5,849.5 Z"/></g>
<g><path style="opacity:0.368" fill="#cb1f24" d="M 676.5,850.5 C 686.678,852.876 696.678,855.543 706.5,858.5C 696.069,857.061 686.069,854.394 676.5,850.5 Z"/></g>
<g><path style="opacity:0.502" fill="#cb1f24" d="M 706.5,858.5 C 709.781,858.42 712.781,859.087 715.5,860.5C 712.219,860.58 709.219,859.913 706.5,858.5 Z"/></g>
<g><path style="opacity:0.344" fill="#cb1f24" d="M 744.5,865.5 C 746.415,865.216 748.081,865.549 749.5,866.5C 747.741,867.261 746.074,866.928 744.5,865.5 Z"/></g>
<g><path style="opacity:0.385" fill="#cb1f24" d="M 864.5,865.5 C 848.805,868.737 832.805,870.403 816.5,870.5C 817.609,869.71 818.942,869.21 820.5,869C 835.214,868.344 849.881,867.177 864.5,865.5 Z"/></g>
<g><path style="opacity:0.37" fill="#cb1f24" d="M 750.5,866.5 C 763.139,867.664 775.806,868.497 788.5,869C 789.737,869.232 790.737,869.732 791.5,870.5C 782.877,870.764 774.377,870.097 766,868.5C 765.667,868.833 765.333,869.167 765,869.5C 760.011,868.824 755.177,867.824 750.5,866.5 Z"/></g>
</svg>
